<svg xmlns="http://www.w3.org/2000/svg" xmlns:xlink="http://www.w3.org/1999/xlink" width="1712" height="775" viewBox="0 0 1712 775"><defs><filter id="a" x="-22.5" y="-19.5" width="1757" height="820" filterUnits="userSpaceOnUse"><feOffset dy="3" input="SourceAlpha"/><feGaussianBlur stdDeviation="7.5" result="b"/><feFlood flood-color="#272535" flood-opacity="0.078"/><feComposite operator="in" in2="b"/><feComposite in="SourceGraphic"/></filter><clipPath id="c"><g transform="matrix(1, 0, 0, 1, 0, 0)" filter="url(#a)"><rect width="1712" height="775" rx="8" transform="translate(104 169)" fill="none"/></g></clipPath></defs><g transform="translate(-104 -169)" clip-path="url(#c)"><path d="M4031.509,7461.969c54.631,111.9,203.626,326.391,486.716,233.136s451.95-37.3,476.783-195.835-64.564-270.437-233.425-326.39-273.156,27.977-476.783-32.639-327.788-13.988-312.889,121.23S4031.509,7461.969,4031.509,7461.969Z" transform="translate(-4089.038 -6880)" fill="#8700ec" opacity="0.17" style="mix-blend-mode:multiply;isolation:isolate"/><path d="M4620.8,5289.6c16,80,3.2,233.6,118.4,291.2s326.4-3.2,387.2-28.8,128-35.2,128-35.2" transform="translate(-4533 -4850)" fill="none" stroke="#181a21" stroke-width="5" opacity="0.57"/><path d="M8513.853,8256.363c-79.308-2.424-171.38,85.649-178.652,177.771s49.745,168.533,61.866,168.533,116.786.363,116.786.363" transform="translate(-6698 -7750)" fill="none" stroke="#330060" stroke-width="5" opacity="0.8"/><path d="M.73,235.314c14.525-2.311,28.39-5.942,43.246-.99,15.846,5.282,28.06,13.865,32.682,30.7-22.448,32.352-22.778,40.935-3.3,65.033C61.8,373.965,45.956,415.229.4,435.7Q.9,335.671.73,235.314Z" transform="translate(1816.253 1143.366) rotate(180)" fill="#33006c" opacity="0.93"/><path d="M31.533,312.141c-16.506-10.564-19.147-40.275,3.3-65.033C52,238.855,69.5,235.554,86,248.1c16.506,12.214,22.448,33.012,15.185,47.867-7.593,15.846-32.682,27.4-49.848,24.1A58.035,58.035,0,0,1,31.533,312.141Z" transform="translate(1778.429 1125.12) rotate(180)" fill="#230146"/></g></svg>