<?xml version="1.0" encoding="UTF-8"?>
<!DOCTYPE svg PUBLIC "-//W3C//DTD SVG 1.1//EN" "http://www.w3.org/Graphics/SVG/1.1/DTD/svg11.dtd">
<!-- Creator: CorelDRAW 2017 -->
<svg xmlns="http://www.w3.org/2000/svg" xml:space="preserve" width="2345px" height="821px" version="1.1" shape-rendering="geometricPrecision" text-rendering="geometricPrecision" image-rendering="optimizeQuality" fill-rule="evenodd" clip-rule="evenodd"
viewBox="0 0 2328.67 815.53"
 xmlns:xlink="http://www.w3.org/1999/xlink">
 <g id="Layer_x0020_1">
  <metadata id="CorelCorpID_0Corel-Layer"/>
  <path fill="#F2F2FF" d="M73.2 418.79c65.77,134.71 245.15,392.94 585.96,280.67 340.81,-112.27 544.1,-44.91 573.99,-235.77 29.9,-190.85 -77.73,-325.57 -281.02,-392.94 -203.29,-67.36 -328.85,33.69 -573.99,-39.29 -245.15,-72.97 -394.62,-16.84 -376.69,145.95 17.94,162.79 71.75,241.38 71.75,241.38z"/>
  <path fill="none" fill-opacity="0.568627" stroke="white" stroke-width="7.94" stroke-miterlimit="22.9256" stroke-opacity="0.568627" d="M248.16 247.39c19.27,96.31 3.86,281.23 142.54,350.57 138.69,69.35 392.95,-3.85 466.15,-34.67 73.2,-30.82 154.1,-42.38 154.1,-42.38"/>
  <path fill="none" fill-opacity="0.349020" stroke="#9C88FF" stroke-width="7.94" stroke-miterlimit="22.9256" stroke-opacity="0.349020" d="M2328.55 327.77c-95.48,-2.92 -206.32,103.11 -215.07,214.01 -8.76,110.91 59.88,202.9 74.48,202.9 14.59,0 140.59,0.44 140.59,0.44"/>
  <path fill="#F2F2FF" d="M2328.16 811.36c-17.49,2.78 -34.18,7.15 -52.07,1.19 -19.07,-6.36 -33.78,-16.69 -39.34,-36.96 27.02,-38.95 27.42,-49.28 3.97,-78.29 13.91,-52.86 32.99,-102.54 87.83,-127.19 -0.4,80.29 -0.53,160.7 -0.39,241.25z"/>
  <path fill="#D2C9FF" d="M2245.54 696.9c19.87,12.72 23.05,48.49 -3.98,78.29 -20.66,9.94 -41.73,13.91 -61.59,-1.19 -19.88,-14.71 -27.03,-39.75 -18.29,-57.63 9.14,-19.08 39.35,-32.99 60.01,-29.01 8.46,1.67 16.56,4.91 23.84,9.54l0.01 0z"/>
 </g>
</svg>
