<svg xmlns="http://www.w3.org/2000/svg" width="602.476" height="666.625" viewBox="0 0 602.476 666.625"><g transform="translate(0.076 0.011)"><path d="M245.8,439.7c-1.6-10.5-.8-69.6-2-80.2-.2-1.9.4-2.7,2.3-2.9,20.9-2.2,40.9-8.3,60.8-14.9a11.994,11.994,0,0,1,2-.3,4.183,4.183,0,0,0,1.2.8c15.9,4.1,31.7,8.3,47.6,12.1a15.926,15.926,0,0,0,13.7-2.7c10.4-7.6,21.1-14.9,31.7-22.3,7.5-5.3,15-10.5,23.6-16.6-20.3.1-38.9-2.2-57.5-4.7,3.1,1.6,6.4,2.7,9.5,4,4.7,1.9,2.2,6,2.5,9.2.2,3.2-2.7,2.4-4.4,2.3-8.8-.3-17.5.8-26.3,1.2-.5-5.5-3.5-10.3-4.4-15.7,4.8-.7,9.6-1.4,14.4-2a193.031,193.031,0,0,0-22.3-5.8c-6.9-1.4-13.5-4.2-20.7-4.5-.1-.1-.3-.1-.4-.2.1.1.3.1.4.2,1.3,3.6.8,5.5-3.7,5.1-4.1-.4-8.3-.1-12.4-.1-2.2,0-3.4.5-1.5,2.8.6.7,1.6,1.3,1,2.8a7.441,7.441,0,0,1-6.4-1c-2.3-1.6-4.5-3.4-7.4-4-.6-4.2-1.1-8.4-1.7-12.5,5.2.6,10.5,1,15.7,1.8,3.3.5,5.1-.2,6.2-3.7,7-22.8,14.2-45.6,21.4-68.4.1-.3.3-.6.4-.9,3.9-13.9,7.4-12.1,18-11.5,11.9.7,23.8,1.8,35.6,2.7,17,1.3,34,2.6,51,3.8,3,.2,6,0,9,.3,7.2.5,10.4,4.9,8.5,11.8q-11.25,40.5-22.9,80.8c-1.1,3.9-.7,5,3.6,5.4,8.3.9,132.6,21,134.9,21.3,6.9.8,9,3,7.2,9.6-.5,2-2.2,2.2-3.7,2.8-8.6,3.7-7.1.9-7.4,10.9-1.9,69.8-.4,139.7-.8,209.5,0,3.5-.9,5.2-4.4,6.4-38.4,13-76.6,26.2-114.9,39.3-6.5,2.2-6.5,2.2-6.5-4.8,0-43.1-.1-86.2.1-129.3,0-4-1.3-5.6-5-6.2-16-2.9-31.9-5.9-47.9-8.9C330.7,453.3,264.3,440.4,245.8,439.7ZM438.3,237.6" fill="#c0b4f8"/><path d="M313.7,496c-5.9,10.2-16.6,28.889-18.1,31.108-8.8,2.56-16.9,4.792-25.2,7.192-13,3.8-25.8,8-38.7,12-1.9.6-5.3,1.769-8.336,2.889,5.7-11.4,15.636-23.789,22.236-34.689,8.7-14.3,17.6-28.5,26.3-42.8,1.8-3,.59-8.344,4.29-8.244,11.4.3,26.11,3.144,37.61,3.244C313.7,476.2,313.7,486.6,313.7,496Z" fill="#c0b4f8"/><path d="M304.791,295.389c-.1-.1,1.41-3.989,2.51-7.489,7-22.8,14.2-45.6,21.4-68.4.1-.3.3-.6.4-.9,3.9-13.9,7.4-12.1,18-11.5,11.9.7,23.8,1.8,35.6,2.7,17,1.3,34,2.6,51,3.8,3,.2,6,0,9,.3,7.2.5,10.4,4.9,8.5,11.8q-11.25,40.5-22.9,80.8c-1.1,3.9-.7,5,3.6,5.4C440.2,312.8,311.991,295.689,304.791,295.389ZM438.3,237.6" fill="#c0b4f8"/><path d="M246.5,282.6l325.8,51.5a4.206,4.206,0,0,1,3.6,4.2v3.6c0,1.8-1.1,3.4-131.8,51L128,340.9Z" fill="#e6e0f9"/><path d="M436.5,411.8l126.1-45.9V571.1L436.5,615.6V411.8Z" fill="#e6e0f9"/><path d="M428.444,310.709,305.4,291.6l-40.7,24.6a4.182,4.182,0,0,0,1.4,7.7l112.1,20.9a11.807,11.807,0,0,0,9.4-2.3Z" fill="#c0b4f8"/><path d="M346,308.9c4.8-.7,9.6-1.4,14.4-2l8.8,1.1c3.1,1.6,6.4,2.7,9.5,4,4.7,1.9,2.2,6,2.5,9.2.2,3.2-2.7,2.4-4.4,2.3-8.8-.3-17.5.8-26.3,1.2l-4.2-7Z" fill="#ffa0ad"/><path d="M287.1,302.2a50.44,50.44,0,0,1,7.4,4,6.271,6.271,0,0,0,2.2,1.1,8.136,8.136,0,0,0,4.1,0c.5-1.5-.4-2.1-1-2.8-1.9-2.3-.7-2.8,1.5-2.8,4.1,0,8.3-.3,12.4.1,2.1.2,3.4-.1,4-.9,1-1.3,0-3.5-.2-4.2-2.4-5.7-25.4-6.4-33.2-6.5C283.3,298.8,287.1,302.2,287.1,302.2Z" fill="#ffa0ad"/><path d="M173.6,108.8C184,90.2,184.4,57,188.9,42.5c3.8-12.3,9.6-21.1,18.7-21.6s18-1.4,21.1,6.1,1.2,17-1.6,28c-2.7,10.3-3.5,15.8-9.7,34.2-3.5,10.2-2.6,21.7-2.6,21.7l-38.9-1.5Z" fill="#ffa0ad"/><path d="M228.3,22.7c.2-2.2,1.1-7.2,3.9-10s10.3-1.7,12.6-1.5c2.3.1,8.3-.4,8.3-.4a52.931,52.931,0,0,0-.3,11.3c.4,6-.9,11.4-3.5,12.7-5.4,2.5-9.4,3-13.2-.6S228.3,22.7,228.3,22.7Z" fill="#ffa0ad"/><path d="M178.8,8.3c3.2,1.5,12.3-1.8,15.6.9s4.8,5.2,5,8.9,0,4.9-2.2,7.4-5.6,6.6-5.9,7.4-5.6,1.7-9.2-3.6c-2.7-4-1.5-9.5-2.1-14C179.6,13.3,178.8,8.3,178.8,8.3Z" fill="#ffa0ad"/><path d="M183.3,45.7c8.3-11.7,5.6-25.1,25.9-29.3,6.4-1.3,15.8-1.6,26.3,7.9,11.5,10.5,6,26.1,8,38.5,2.4,15-4.5,32.1-17.8,37.6-1.7.7-6.2,3.1-11.2,1.9-4.3-1-8.9-5.7-14-7.6-11.4-4.3-16.7,4.9-20.9.7C170.4,86.3,171.7,62,183.3,45.7Z" fill="#ffa0ad"/><path d="M221,93.7a6.638,6.638,0,0,0-3.2,3.4,18.061,18.061,0,0,0-1.4,4.5,37.757,37.757,0,0,0-.6,4.7,19.218,19.218,0,0,0,0,2.4,3.749,3.749,0,0,0,.1,1.1.749.749,0,0,0,.1.5v0l-.1-.2-.3-.3a1.9,1.9,0,0,0-.9-.3l.1,3a2.934,2.934,0,0,1-1-.3c-.1-.1-.3-.2-.4-.4a1.969,1.969,0,0,1-.3-.8v-1.2c0-.5.1-.9.1-1.3.1-.9.3-1.7.4-2.5a26.431,26.431,0,0,1,1.4-4.8,23.47,23.47,0,0,1,2.2-4.5A6.724,6.724,0,0,1,221,93.7Z" fill="#e87474"/><path d="M173.3,107.5a45.076,45.076,0,0,0,4.8-8.9,16.766,16.766,0,0,0,.9-9.9,17.186,17.186,0,0,1,1.1,5.1,19.07,19.07,0,0,1-.5,5.3A41.8,41.8,0,0,1,176,109Z" fill="#e87474"/><path d="M202.7,110.6c25.5,1,24.3-3.1,28.6-2.4a136.5,136.5,0,0,1,21.4,5.3c18.2,6.1,27.3,19,29.8,37.4,2.6,19,.9,37.8-1.5,56.7-3.3,25.7-8.1,51.2-13.2,76.6-.5,2.6-.6,2.8-.5,2.8,2.7.5,13.1,2.2,18.1,2.8.6,4.2,1.1,8.4,1.7,12.5l-2.4.6c-3.7-.6-7.2.4-10.8.8-12.3,1.2-9.7-.2-11.8,11.2-.4,1.6-.7,3.2-1.2,4.8-1.2,4,.6,4.5,4,3.9,17.3-3.3,34.5-6.6,51.9-9.6,9.8-1.7,19.4-4.3,29.4-5,.9,5.4,3.9,10.2,4.4,15.7-13.5,6.4-27.7,11.1-41.5,16.7a13.807,13.807,0,0,0-2,.3c-19.8,6.6-39.8,12.7-60.8,14.9-2,.2-1.7-.3-1.7,1.4-.2,10.2-.3,22.7,1.3,33.3-.9,1.2-1.9,2.3-2.7,3.5-15.7,22.9-31.3,45.7-46.9,68.6-.9,1.3-1.6,2.8-2.5,4.2l-.3-.1c-7.3.4-20.176,1.889-27.476,2.289C138.124,470.989,115.8,471,88,467.3c-13.9-1.9-25.7-7.3-33.6-20.4C38.5,420.3,32,391.4,32.1,360.8c0-3.1,1.4-3.8,4-3.1,6.1,1.5,12.3,1.4,18.4.8,14.7-1.3,27.9-6.1,38.1-17.2,18-19.6,9.6-50.6-15.3-57.1-4.9-1.3-10.1-1.8-15.2-2.5-10.9-1.4-21.7-2.9-31.9-7.1,5.1-29,12.1-57.5,22.9-85,7-17.9,13.1-36.3,24.3-52.3,9.6-13.7,21-25.3,37.3-31.1a56.281,56.281,0,0,1,18.6-2.7c8.8,0,17.6.1,26.4.1,1.9.1,3.8.1,5.7.2C168.3,104,172.5,109.4,202.7,110.6Z" fill="#9c88ff"/><path d="M245.8,391.2c18.6.7,37.1,1.1,55.7,2.2,22.6,1.4,45.2,3,67.4,8.4,19.4,4.7,24.7,17.8,22.1,35.5-1.3,8.8-4.4,17-7.5,25.2C354,523.3,309.8,573.2,265.2,622.8c-2.8,3.1-5.9,3.1-9.3,3.3H241.8c-3.8.2-2.9-1.5-1.6-3.7,13.5-22.9,26.9-45.9,40.3-68.8,5.1-8.7,9.93-17.667,15.03-26.467l1-1.75c.2-.3,2.181-3.794,2.481-4.094.4-1,8.6-14.75,14.4-24.95,6.3-8.8,11.389-18.939,17.089-28.639H298.424c-11.5-.1-7.524,0-19.024-.3-3.7-.1-5.6,1.3-7.5,4.3-8.7,14.3-17.6,28.5-26.3,42.8-6.6,10.9-14,21.3-19.7,32.7l-.2.3a5.716,5.716,0,0,0-.8.7c-12.9,20.6-25.7,41.3-38.6,61.9-.9,1.4-1.3,3.1-2.9,3.9H170.7c-7.3-.4-7.3-.4-5-7.4q7.8-22.8,15.5-45.7c.6-1.9,1-3.8,1.6-5.7.8-2.2,1.7-4.3,2.5-6.5,8.7-25.6,17.4-51.2,26.3-76.7,1.2-3.6-.143-4.177-4.443-3.777-4.8.4-9.2-.1-14,0,.8-1.4,2.243-3.623,3.243-5.023,15.6-22.9,31.3-45.8,46.9-68.6C243.9,393.6,244.9,392.4,245.8,391.2Z" fill="#a758ff"/><path d="M30.1,274.6c10.3,4.1,21.1,5.7,31.9,7.1a109.51,109.51,0,0,1,15.2,2.5c25,6.5,33.3,37.6,15.3,57.1-10.2,11.1-23.5,16-38.1,17.2-6.1.5-12.3.6-18.4-.8-2.6-.6-4,0-4,3.1-.1,30.7,6.4,59.5,22.3,86.1C62.1,460,74,465.4,87.9,467.3c27.8,3.8,55.7,2.6,83.6,1.3,7.3-.3,14.6-.7,21.9-1.1-2.3,5.6-4.776,8.989-10.7,13.9a81.09,81.09,0,0,1-36.8,15.3c-.8.1-1.6.3-2.5.4-3.7.5-8.8-.9-10.8,1.9-1.8,2.6-.7,7.4-.9,11.2-1.3,37.2-2.5,74.5-4,111.7-.2,4.6,1.1,5.6,5.4,5.3,5.3-.5,11.6-1,15.5,2.3,8.2,6.9,18.6,8,27.7,12.5,3.8,1.9,6.4,4.4,5.9,8.8-.4,4.1-2.2,7.5-6.7,8.2-3.9.6-6.7-1.6-8.3-5.1s-.4-5.9,4.7-9.7c-5.2-2.1-10.6-2.9-15.7-4.2a1.7,1.7,0,0,0-1.4.2c-10.3,7.4-22.6,5.4-34,7.5-1,.2-2,.2-3,.3-1.8.1-2,1.5-2.2,2.8-.3,2.2,1.4,1.3,2.3,1.3,3.8,0,5.8,2.3,6.7,5.6a6.759,6.759,0,0,1-3,7.9c-2.8,1.8-5.8,1-8.4-.8-4.2-3-5.3-7-3.8-11.9,1.1-3.5.3-5-3.8-4.8s-8.3-.5-12.4-.8a10.591,10.591,0,0,1-5.1-1.9c-6.7-4.3-6.8-4.3-15.6-1.1,2.9,2.3,6.2,4.5,4.9,8.7a7.875,7.875,0,0,1-7.1,6.1c-3.6.4-6-1.7-7.4-4.8-1.6-3.6-1.6-7.3,1.7-10a18.682,18.682,0,0,1,6.5-3.5c13.9-4.5,27.4-10.3,42-11.9,2.5-.3,4.5-.5,4.6-4.2q1.8-61.05,4.1-122.2c.1-3.2-.3-4.8-4.1-4.9-29.3-1.1-51.2-14.8-67.6-38.8C33.9,435.1,25.5,409,22.8,380.7a159.044,159.044,0,0,1-.6-23.9,4.431,4.431,0,0,0-2.5-4.8C3.8,343.1-1.4,328.9.2,311.6a111.784,111.784,0,0,1,5.9-26.2c4.2-12.3,9.6-15,22-11A13.556,13.556,0,0,1,30.1,274.6Z" fill="#463a5e"/><path d="M182.7,481.4c4-4.3,8.5-8.2,10.7-13.9l.3.1c4.8,0,9.7.2,14.4-.2,4.3-.3,4.69,2.489,3.49,6.089-8.8,25.5-18.933,55.1-27.733,80.6-.7,2.2-.357-.989-1.257,1.211C182.7,530.8,182.7,506.1,182.7,481.4Z" fill="#c0b4f8"/><path d="M241.8,626.1h14.1a21.479,21.479,0,0,1-1.4,2.6c-2.2,2.9-1.2,3.9,2.1,4.1,6.6.5,12.4,3.1,18.7,7.9-14.9,1.7-28.7,3.3-43.2,5C235.6,638.8,238.7,632.5,241.8,626.1Z" fill="#c0b4f8"/><path d="M170.6,614.2h12.7c-.8,2.5-2.8,5.6-2,7.4.9,2.2,4.8,1.1,7.3,1.9,4.2,1.4,8.4,2.9,12.5,6.5-9.8,1.7-18.9,3.4-27.9,4.9-10,1.6-10,1.6-6.8-8.1C167.9,622.7,169.3,618.4,170.6,614.2Z" fill="#c0b4f8"/><path d="M501.2,11.2c7.6,1.3,14.2,2.5,20.7,3.6,1.9.3,3,.9,1.7,2.8-3,4.4-6,8.8-9.1,13.2-.6.9-1.5,2.1-2.5.2C508.5,24.8,505.1,18.4,501.2,11.2Z" fill="#963dfa"/><path d="M421,153.6c-7.3-1.9-13.2-3.5-19.1-5-2.2-.5-2.1-1.6-1.2-2.8,3.1-4.5,6.3-8.9,9.5-13.4,1.1-1.6,1.8-1,2.6.8,2.6,5.8,5.2,11.6,7.9,17.4C421.4,152.1,422.3,153.7,421,153.6Z" fill="#963dfa"/><path d="M224.8,548.4a5.716,5.716,0,0,0,.8-.7C225.4,547.9,225.1,548.1,224.8,548.4Z" fill="#aedbcb"/><path d="M287.1,302.2c2.8.6,5.1,2.4,7.4,4a7.393,7.393,0,0,0,6.4,1c.5-1.5-.4-2.1-1-2.8-1.9-2.3-.7-2.8,1.5-2.8,4.1,0,8.3-.3,12.4.1,4.5.4,5.1-1.5,3.7-5.1h0c7.2.3,13.8,3,20.7,4.5a193.029,193.029,0,0,1,22.3,5.8c-4.8.7-9.6,1.4-14.4,2-10,.6-19.6,3.3-29.4,5-17.3,3-34.6,6.3-51.9,9.6-3.4.6-5.2.1-4-3.9.5-1.6.8-3.2,1.2-4.8,7.6-4,15.7-6.8,22.7-12Q285.75,302.5,287.1,302.2Z" fill="#c0b4f8"/><path d="M284.6,302.8c-7,5.1-15.1,8-22.7,12,2.2-11.4-.5-10,11.8-11.2C277.4,303.2,280.9,302.2,284.6,302.8Z" fill="#cbc2dd"/><path d="M443.3,223c-1.2,4.3-2.4,8.7-3.6,13.1-5.8,21.5-11.6,42.8-17.2,63.9-.9,3.4-1.8,5-6.2,4.2-32.5-5.7-65.3-11.1-98.2-16.4-3.2-.5-3.8-1.4-2.8-4.4,6.9-21.8,13.8-44,20.7-66.4.7-2.4,1.7-3.4,4.7-3.2,32.7,2.3,65.4,4.3,98,6.5C440.5,220.5,443.2,219.7,443.3,223Z" fill="#463a5e"/><path d="M317.4,296.6c-.1-.1-.3-.1-.4-.2.2.1.3.2.4.2Z" fill="#fafafa"/><path d="M295.5,527.3a5.008,5.008,0,0,1,.7-.8A5.008,5.008,0,0,0,295.5,527.3Z" fill="#fafafa"/><path d="M413.4,89.5c-1.5-.2-2.5-1.1-2.2-2.7a8.714,8.714,0,0,1,1.4-3.1c7.2-12.3,14.4-24.6,21.7-36.8,1-1.7,1.8-4.7,4.6-3s.6,3.8-.4,5.5c-7.2,12.3-14.4,24.6-21.6,36.8C416.1,87.7,415.4,89.4,413.4,89.5Z" fill="#fafafa"/><path d="M459.9,66.3c-5.3-3.1-9.9-5.9-14.6-8.7-1.8-1.1-4.5-2.1-2.9-4.8,1.4-2.4,3.5-.6,5.2.3,7.1,4.2,14.2,8.4,22.1,13.1-8.3,5-16,9.6-23.7,14.2-1.3.8-2.7.7-3.5-.6-1.1-1.9,0-3.1,1.6-4C449.1,72.9,454,69.9,459.9,66.3Z" fill="#fafafa"/><path d="M376.9,63.7c8-4.8,15.3-9.2,22.5-13.5,1.6-.9,3.4-2.2,4.7.1,1.2,2.2-.6,3.3-2.2,4.2-4.8,2.9-9.7,5.8-15.2,9.1,5.3,3.1,10.1,5.9,14.8,8.8,1.6,1,4.2,1.8,2.9,4.4-1.5,2.9-3.7.9-5.5-.1C391.7,72.5,384.6,68.2,376.9,63.7Z" fill="#fafafa"/><path d="M501.1,322.4c.6,5.7-1,9.2-4.9,10.5-1.8.6-2.9.4-2.8-1.8l.3-9.9C496.1,321.7,498.6,322,501.1,322.4Z" fill="#cacaca"/><path d="M416.2,245.4c-15.8-1.6-31.7-3.3-47.5-5-1.5-.2-3.7.2-3.4-2.5.3-2.9,2.4-1.5,3.8-1.3,15.8,1.6,31.7,3.3,47.5,5,1.3.1,3.3-.4,3,2.1C419.3,246.1,417.7,245.6,416.2,245.4Z" fill="#cacaca"/><path d="M386.5,233.7c-13.5-1.4-26.3-2.7-39.2-4.1-1.3-.1-2.8,0-2.9-1.9-.1-2,1.2-2.1,2.7-1.9,14,1.4,28,2.8,42.1,4.3,1.3.1,2.2.6,2.1,2.1-.1,1.6-1.2,1.8-2.4,1.7C387.9,233.8,386.9,233.7,386.5,233.7Z" fill="#cacaca"/><path d="M335.9,264.9c9.5,1.2,18.4,2.3,27.3,3.5,1.5.2,3.7-.1,3.1,2.6-.5,2.4-2.3,1.3-3.6,1.2-8.9-1.1-17.8-2.3-26.7-3.5-1.3-.2-3.3.4-2.9-2.2C333.5,264.2,335.1,264.8,335.9,264.9Z" fill="#cacaca"/><path d="M392.8,263.6c-6.1-.6-13.4-1.3-20.6-2.1-1.5-.2-3.2-.1-3-2.4.2-2.5,2-1.6,3.3-1.5,7.8.8,15.5,1.5,23.3,2.4,1.6.2,4.3-.6,4,2.4s-2.7,1.4-4.3,1.5A16.581,16.581,0,0,0,392.8,263.6Z" fill="#cacaca"/><path d="M413.7,253.7c-8.4-.9-16.4-1.8-24.5-2.7-1.4-.2-3.2,0-2.8-2.4.4-2.5,2.2-1.5,3.5-1.4,7.9.8,15.9,1.7,23.8,2.6,1.5.2,3.7-.5,3.4,2.3C416.7,254.5,414.7,253.3,413.7,253.7Z" fill="#cacaca"/><path d="M365.9,248.6c-7.9-.9-15.7-1.7-23.4-2.6-1.5-.2-3.6,0-3.1-2.6.5-2.4,2.3-1.3,3.6-1.2,7.7.8,15.5,1.6,23.2,2.6,1.5.2,4.2-.8,3.9,2.3C369.8,250,367.2,248.2,365.9,248.6Z" fill="#cacaca"/><path d="M350,259.1c-3-.3-7.5-.9-11.9-1.3-1.4-.1-2.7-.1-2.5-2.1s1.6-1.9,2.9-1.7c4.6.5,9.2,1,13.8,1.6,1.2.2,2.8,0,2.5,2.1C354.4,259.9,352.9,259.5,350,259.1Z" fill="#cacaca"/><path d="M415.5,236.8c-2.1-.3-4.3-.5-6.4-.8-1.4-.2-2-.9-1.8-2.3.2-1.7,1.2-1.7,2.5-1.6,3.1.4,6.3.6,9.4,1,1.3.2,3.2-.1,3.1,2.3-.2,2.9-2.2,1.7-3.7,1.6l-3-.3A.1.1,0,0,0,415.5,236.8Z" fill="#cacaca"/><path d="M351.1,238.6c-2.3-.3-4.6-.6-6.9-.8-1.4-.1-2.7-.2-2.4-2.2.3-1.9,1.6-1.8,3-1.7,2.3.2,4.6.5,6.9.8,1.3.2,3.3-.5,3.2,2C354.7,239.4,352.7,238.6,351.1,238.6Z" fill="#cacaca"/><path d="M271.9,471.8c1.8-3,3.8-4.4,7.5-4.3h-71s4.3,1.2,3.1,4.7c-8.8,25.5-17.5,51.2-26.3,76.7-.7,2.2-1.6,4.3-2.5,6.5a53.241,53.241,0,0,1-1.6,5.7q-7.65,22.8-15.5,45.7c-2.4,7-2.4,7,5,7.4h12.7c1.6-.8,2.1-2.5,2.9-3.9,12.9-20.6,25.7-41.3,38.6-61.9a5.716,5.716,0,0,0,.8-.7l.2-.3c5.7-11.4,13.1-21.8,19.7-32.8C254.3,500.3,263.3,486.1,271.9,471.8Z" fill="#8f14ff"/><path d="M338.9,317c1.3,3.7,2.5,7.3,3.9,11,2.6-1.1,5.1-2.2,7.7-3.4-.5-5.5-3.5-10.3-4.4-15.7-3.2.2-6.3.6-9.4,1.1C337.3,312.4,338.1,314.7,338.9,317Z" fill="#7964ff" opacity="0.5"/><path d="M516.2,306.9a16.635,16.635,0,0,0-7.1-2.4v-4.6a5.335,5.335,0,0,0-5.3-5.3H477.2a5.335,5.335,0,0,0-5.3,5.3v35.4a5.335,5.335,0,0,0,5.3,5.3h26.6a5.335,5.335,0,0,0,5.3-5.3v-2.1a16.2,16.2,0,0,0,3.8-.9c4.3-1.6,7-5.5,7.6-10.9C521.1,316.3,519.6,309.2,516.2,306.9Zm-1.8,14.6c-.5,2.8-1.7,4.5-3.7,5.2a8.468,8.468,0,0,1-1.7.4V310.5a11.451,11.451,0,0,1,3.7,1.3C513.6,312.6,515.2,317.1,514.4,321.5Z" fill="#9c88ff"/><path d="M586.7,238.7l-66-11.6c-8.6-1.5-15.7-9.8-15.7-18.4v-74c0-8.6,7.1-14.4,15.7-12.9l66,11.6c8.6,1.5,15.7,9.8,15.7,18.4v74C602.3,234.4,595.3,240.2,586.7,238.7Z" fill="#8f14ff"/><path d="M542.6,182.7l-66-11.6c-8.6-1.5-15.7-9.8-15.7-18.4v-74c0-8.6,7.1-14.4,15.7-12.9l66,11.6c8.6,1.5,15.7,9.8,15.7,18.4v74C558.2,178.4,551.2,184.2,542.6,182.7Z" fill="#a758ff"/><path d="M474.5,119.7l-94.8-16.6c-9.1-1.6-16.6-10.4-16.6-19.5V27.1c0-9.1,7.5-15.3,16.6-13.7L474.5,30c9.1,1.6,16.6,10.4,16.6,19.5v56.6C491.1,115.2,483.6,121.3,474.5,119.7Z" fill="#9c88ff"/><path d="M401.2,75.5c-4.6-5.5-12.4-14.6-12.5-14.7a3.777,3.777,0,0,1-.9-2.4,2.138,2.138,0,0,1,.9-1.8c.1-.1,7.8-5.7,12.4-8.9,1.2-.8,3.1-.3,4.3,1.1s1.2,3.3,0,4.2l-10.2,7.4,10.3,12.2c1.2,1.4,1.2,3.3,0,4.2A3.769,3.769,0,0,1,401.2,75.5Z" fill="#fff"/><path d="M410.8,80.9,434,50c.9-1.2,2.9-1.2,4.3.1,1.5,1.2,2,3.3,1.1,4.5L416.1,85.5a3.021,3.021,0,0,1-4.3-.1C410.3,84.1,409.9,82.1,410.8,80.9Z" fill="#fff"/><path d="M441.6,81.7l10.3-6.9L441.7,62.2c-1.2-1.4-1.2-3.3,0-4.2,1.2-.8,3.1-.3,4.3,1.1,4.6,5.5,12.2,15,12.4,15.2a3.729,3.729,0,0,1,.9,2.3,2.2,2.2,0,0,1-.9,1.9c-.1.1-7.9,5.2-12.5,8.4-1.2.8-3.1.3-4.3-1.1C440.5,84.4,440.5,82.5,441.6,81.7Z" fill="#fff"/><path d="M588.5,53.2l-30-5.2a8.851,8.851,0,0,1-7.1-8.4V6A5.841,5.841,0,0,1,558.5.1l30,5.2a8.851,8.851,0,0,1,7.1,8.4V47.3C595.7,51.3,592.5,53.9,588.5,53.2Z" fill="#9c88ff"/><path d="M244.6,358.7c-.1,1.7-.1,3.4-.2,5.1-9.4-.3-18.9,1.1-28.2-2.1-12.2-4.2-17.1-11.2-19-24.1-3.8-26.2.5-51.7,5.8-77.2.9-4.4,2-8.7,3.1-13a2.159,2.159,0,0,1,1.4-1.6c-1.2,6.6-2.6,13.2-3.6,19.9-3.5,24.1-5.9,48.2.2,72.5,3.1,12.2,10.6,16.8,21.7,18.6a50.075,50.075,0,0,0,18.9-.1A12.749,12.749,0,0,0,244.6,358.7Z" fill="#6e58ff" opacity="0.74"/><path d="M216.7,107.6a9.466,9.466,0,0,1-1.9.3c-3.6.4-8.6.1-13.9-.2-2.1-.1-4.3-.3-6.5-.4-.7,0-1.4-.1-2.2-.1-4.4-.2-9.9-.4-14.3-1.4a13.473,13.473,0,0,1-4.9-1.9c-2.1-.1-10.1-.2-12.2-.3.9,9.5,20.3,10.1,31.3,10.6.8,0,1.5.1,2.2.1,2.2.1,4.4.2,6.5.4,3.6.2,9.9.6,12.9.6,6.9,0,16-2.3,17.7-7C228.8,107.6,219.2,108,216.7,107.6Z" fill="#7964ff"/><path d="M202.7,58.9" fill="#5b4256"/><path d="M198.6,10.4c1.1-.2,2.4,4.5,3.4,4.3.7-.1.1-2.5,1.4-5.4,1.2-2.7,3.3-4.5,3.8-4.2.6.3-1.5,3-.4,6,.4,1,1.4,2.7,2.5,2.7,1.8-.1,1.8-4.7,6.1-9.2,1-1,2.5-2.4,2.8-2.1.2.2-.8,1.4-1.5,3.2-1.4,3.4-.9,7.4.1,7.6.8.2,1.9-1.9,2.4-1.6.5.2-.5,2.1,0,2.6,1,.8,6.4-4,6.9-3.5.2.2-1,1.4-.6,2,.4.7,3.3-.9,4-.1.4.5-.4,1.2-.4,2.8,0,2,1.1,3,.8,3.6-.6,1.1-5.3-.6-7.5-1.2-13.3-3.5-22.1,2.4-24.7-1.7C196.4,14.1,197.7,10.6,198.6,10.4Z" fill="#463a5e"/><path d="M239.2,48.3c4.1-9.5,3.1-10.8,3.3-16C243.1,17.2,225.1,5,207,12.7c-13.6,5.8-22.7,12.5-27.1,28.3-2.1,7.4-2.176,18.656-14.71,25.6-.533,12.789,38.091,16.145,49.867,13.056C225.257,76.256,227,71.6,231.6,66.6,236.6,61.2,236.9,53.7,239.2,48.3Z" fill="#463a5e"/></g></svg>