<?xml version="1.0" encoding="UTF-8"?>
<!DOCTYPE svg PUBLIC "-//W3C//DTD SVG 1.1//EN" "http://www.w3.org/Graphics/SVG/1.1/DTD/svg11.dtd">
<!-- Creator: CorelDRAW 2017 -->
<svg xmlns="http://www.w3.org/2000/svg" xml:space="preserve" width="2147px" height="752px" version="1.1" shape-rendering="geometricPrecision" text-rendering="geometricPrecision" image-rendering="optimizeQuality" fill-rule="evenodd" clip-rule="evenodd"
viewBox="0 0 2220.07 777.49"
 xmlns:xlink="http://www.w3.org/1999/xlink">
 <g id="Layer_x0020_1">
  <metadata id="CorelCorpID_0Corel-Layer"/>
  <path fill="#8700EC" fill-opacity="0.168627" d="M69.79 399.25c62.7,128.44 233.71,374.62 558.62,267.58 324.92,-107.03 518.72,-42.81 547.23,-224.76 28.5,-181.96 -74.11,-310.39 -267.92,-374.62 -193.8,-64.21 -313.51,32.12 -547.22,-37.46 -233.71,-69.57 -376.21,-16.05 -359.11,139.14 17.09,155.2 68.4,230.12 68.4,230.12z"/>
  <path fill="none" fill-opacity="0.568627" stroke="#181A21" stroke-width="8.27" stroke-miterlimit="22.9256" stroke-opacity="0.568627" d="M236.59 235.85c18.36,91.82 3.67,268.11 135.89,334.22 132.22,66.11 374.62,-3.67 444.41,-33.05 69.78,-29.38 146.91,-40.4 146.91,-40.4"/>
  <path fill="none" fill-opacity="0.800000" stroke="#330060" stroke-width="8.27" stroke-miterlimit="22.9256" stroke-opacity="0.800000" d="M2219.95 312.48c-91.03,-2.78 -196.7,98.3 -205.05,204.03 -8.35,105.74 57.09,193.44 71.01,193.44 13.91,0 134.04,0.41 134.04,0.41"/>
  <path fill="#33006C" fill-opacity="0.929412" d="M2219.57 773.51c-16.67,2.66 -32.59,6.82 -49.64,1.14 -18.19,-6.06 -32.2,-15.91 -37.51,-35.24 25.77,-37.13 26.14,-46.98 3.79,-74.64 13.26,-50.39 31.45,-97.75 83.74,-121.25 -0.39,76.54 -0.51,153.2 -0.38,229.99z"/>
  <path fill="#230146" d="M2140.8 664.39c18.95,12.13 21.98,46.23 -3.79,74.65 -19.7,9.47 -39.78,13.26 -58.72,-1.14 -18.95,-14.02 -25.77,-37.89 -17.43,-54.94 8.71,-18.19 37.51,-31.45 57.21,-27.66 8.07,1.59 15.78,4.68 22.73,9.09l0 0z"/>
 </g>
</svg>
