<?xml version="1.0" encoding="UTF-8"?>
<!DOCTYPE svg PUBLIC "-//W3C//DTD SVG 1.1//EN" "http://www.w3.org/Graphics/SVG/1.1/DTD/svg11.dtd">
<!-- Creator: CorelDRAW 2017 -->
<svg xmlns="http://www.w3.org/2000/svg" xml:space="preserve" width="472px" height="443px" version="1.1" shape-rendering="geometricPrecision" text-rendering="geometricPrecision" image-rendering="optimizeQuality" fill-rule="evenodd" clip-rule="evenodd"
viewBox="0 0 414.76 388.52"
 xmlns:xlink="http://www.w3.org/1999/xlink">
 <g id="Layer_x0020_1">
  <metadata id="CorelCorpID_0Corel-Layer"/>
  <polygon fill="#463A5E" fill-rule="nonzero" points="136.37,207 119.79,193.01 136.37,179.06 140.21,182.95 128.01,192.97 140.21,203.11 "/>
  <polygon id="1" fill="#463A5E" fill-rule="nonzero" points="276.85,179.06 293.46,193.01 276.85,207 273.03,203.11 285.24,193.06 273.03,182.95 "/>
  <path id="2" fill="#463A5E" fill-rule="nonzero" d="M148.02 170.33l10.04 0 0 13.29c1.36,-1.42 2.71,-2.44 4.06,-3.04 1.33,-0.61 2.93,-0.92 4.76,-0.92 2.72,0 4.87,0.84 6.43,2.49 1.56,1.67 2.35,4.21 2.35,7.65l0 16.64 -10.09 0 0 -14.4c0,-1.64 -0.3,-2.8 -0.91,-3.48 -0.6,-0.69 -1.45,-1.03 -2.54,-1.03 -1.21,0 -2.19,0.46 -2.94,1.38 -0.75,0.92 -1.12,2.57 -1.12,4.96l0 12.57 -10.04 0 0 -36.11z"/>
  <path id="3" fill="#463A5E" fill-rule="nonzero" d="M193.76 170.33l0 9.94 5.5 0 0 7.36 -5.5 0 0 9.26c0,1.11 0.11,1.85 0.32,2.21 0.33,0.56 0.91,0.84 1.73,0.84 0.74,0 1.78,-0.21 3.11,-0.64l0.74 6.93c-2.48,0.55 -4.79,0.82 -6.94,0.82 -2.5,0 -4.34,-0.32 -5.52,-0.96 -1.18,-0.64 -2.05,-1.61 -2.63,-2.92 -0.56,-1.3 -0.84,-3.42 -0.84,-6.33l0 -9.21 -3.69 0 0 -7.36 3.69 0 0 -4.8 10.03 -5.14z"/>
  <path id="4" fill="#463A5E" fill-rule="nonzero" d="M204.14 180.27l9.35 0 0 3.81c1.34,-1.6 2.71,-2.74 4.08,-3.41 1.36,-0.67 3.02,-1.01 4.96,-1.01 2.09,0 3.73,0.37 4.95,1.11 1.22,0.74 2.21,1.84 2.99,3.31 1.57,-1.71 3,-2.88 4.29,-3.49 1.3,-0.62 2.89,-0.93 4.79,-0.93 2.8,0 4.99,0.84 6.56,2.51 1.57,1.66 2.36,4.28 2.36,7.82l0 16.45 -10.03 0 0 -14.95c0,-1.19 -0.23,-2.08 -0.69,-2.65 -0.67,-0.91 -1.51,-1.36 -2.5,-1.36 -1.18,0 -2.13,0.43 -2.85,1.29 -0.71,0.85 -1.08,2.23 -1.08,4.12l0 13.55 -10.03 0 0 -14.42c0,-1.15 -0.07,-1.93 -0.2,-2.35 -0.21,-0.65 -0.58,-1.18 -1.11,-1.58 -0.52,-0.41 -1.15,-0.61 -1.85,-0.61 -1.15,0 -2.1,0.44 -2.84,1.3 -0.74,0.88 -1.11,2.31 -1.11,4.3l0 13.36 -10.04 0 0 -26.17z"/>
  <polygon id="5" fill="#463A5E" fill-rule="nonzero" points="254.83,170.33 264.86,170.33 264.86,206.44 254.83,206.44 "/>
  <g>
   <path fill="#8878A6" fill-rule="nonzero" d="M322.7 187.86l-13.16 0 0 0 -0.14 -5.42 -0.41 -5.34 -0.66 -5.26 -0.93 -5.18 -1.17 -5.09 -1.42 -4.98 -1.65 -4.89 -1.88 -4.77 -2.11 -4.66 -2.32 -4.53 -2.53 -4.4 -2.74 -4.27 -2.93 -4.12 -3.12 -3.98 -3.31 -3.81 -3.48 -3.66 -3.66 -3.48 -3.81 -3.31 -3.98 -3.12 -4.12 -2.94 -4.27 -2.73 -4.41 -2.53 -4.53 -2.33 -4.66 -2.1 -4.77 -1.88 -4.89 -1.66 -4.99 -1.41 -5.09 -1.18 -5.18 -0.92 -5.26 -0.67 -5.35 -0.41 -5.42 -0.14 0 -13.21 6.08 0.16 6.01 0.45 5.92 0.76 5.83 1.04 5.73 1.32 5.62 1.59 5.5 1.86 5.37 2.12 5.25 2.37 5.1 2.62 4.96 2.85 4.8 3.08 4.64 3.3 4.47 3.51 4.29 3.72 4.11 3.92 3.92 4.1 3.72 4.3 3.51 4.47 3.3 4.64 3.08 4.8 2.85 4.96 2.62 5.11 2.37 5.24 2.12 5.38 1.86 5.5 1.6 5.62 1.32 5.73 1.04 5.84 0.75 5.92 0.46 6.01 0.15 6.09 0 0zm-118.35 118.37l0 -13.21 0 0 5.42 -0.13 5.35 -0.41 5.26 -0.67 5.18 -0.93 5.09 -1.17 4.99 -1.42 4.89 -1.65 4.77 -1.88 4.66 -2.11 4.53 -2.32 4.41 -2.53 4.27 -2.74 4.12 -2.93 3.98 -3.13 3.81 -3.3 3.66 -3.49 3.48 -3.65 3.31 -3.82 3.12 -3.97 2.93 -4.13 2.74 -4.26 2.53 -4.41 2.32 -4.53 2.11 -4.66 1.88 -4.77 1.65 -4.88 1.42 -4.99 1.17 -5.08 0.93 -5.18 0.66 -5.26 0.41 -5.35 0.14 -5.41 13.16 0 -0.15 6.08 -0.46 6.01 -0.75 5.93 -1.04 5.83 -1.32 5.73 -1.6 5.62 -1.86 5.5 -2.12 5.38 -2.37 5.25 -2.62 5.1 -2.85 4.96 -3.08 4.81 -3.3 4.64 -3.51 4.47 -3.72 4.29 -3.92 4.11 -4.11 3.92 -4.29 3.72 -4.47 3.51 -4.64 3.3 -4.8 3.08 -4.96 2.85 -5.1 2.61 -5.25 2.37 -5.37 2.12 -5.5 1.86 -5.62 1.6 -5.73 1.32 -5.83 1.04 -5.92 0.75 -6.01 0.46 -6.08 0.15 0 0zm-118.35 -118.37l13.16 0 0 0 0.14 5.41 0.41 5.35 0.67 5.26 0.92 5.18 1.18 5.08 1.41 4.99 1.65 4.88 1.89 4.77 2.1 4.66 2.32 4.53 2.54 4.41 2.73 4.26 2.93 4.13 3.13 3.97 3.3 3.82 3.49 3.65 3.65 3.49 3.82 3.3 3.97 3.13 4.13 2.93 4.27 2.74 4.4 2.53 4.53 2.32 4.66 2.11 4.78 1.88 4.88 1.65 4.99 1.42 5.09 1.17 5.18 0.93 5.27 0.67 5.34 0.41 5.42 0.13 0 13.21 -6.08 -0.15 -6.01 -0.46 -5.92 -0.75 -5.83 -1.04 -5.72 -1.32 -5.62 -1.6 -5.5 -1.86 -5.38 -2.12 -5.24 -2.37 -5.11 -2.61 -4.96 -2.85 -4.8 -3.08 -4.64 -3.3 -4.47 -3.51 -4.29 -3.72 -4.11 -3.92 -3.92 -4.11 -3.72 -4.29 -3.51 -4.47 -3.3 -4.64 -3.08 -4.81 -2.85 -4.96 -2.61 -5.1 -2.38 -5.25 -2.12 -5.38 -1.86 -5.5 -1.59 -5.62 -1.33 -5.73 -1.04 -5.83 -0.75 -5.93 -0.46 -6.01 -0.15 -6.08 0 0zm118.35 -118.38l0 13.21 0 0 -5.42 0.14 -5.34 0.41 -5.27 0.67 -5.18 0.92 -5.09 1.18 -4.99 1.41 -4.88 1.66 -4.78 1.88 -4.66 2.1 -4.53 2.33 -4.4 2.53 -4.27 2.73 -4.13 2.94 -3.97 3.12 -3.82 3.31 -3.65 3.48 -3.49 3.66 -3.3 3.81 -3.13 3.98 -2.93 4.12 -2.74 4.27 -2.53 4.4 -2.32 4.53 -2.1 4.66 -1.89 4.77 -1.65 4.89 -1.41 4.98 -1.18 5.09 -0.92 5.18 -0.67 5.26 -0.41 5.34 -0.14 5.42 -13.16 0 0.15 -6.09 0.46 -6.01 0.75 -5.92 1.04 -5.84 1.33 -5.73 1.59 -5.62 1.86 -5.5 2.12 -5.38 2.38 -5.24 2.61 -5.11 2.85 -4.96 3.08 -4.8 3.3 -4.64 3.51 -4.47 3.72 -4.3 3.92 -4.1 4.11 -3.92 4.29 -3.72 4.47 -3.51 4.64 -3.3 4.8 -3.08 4.96 -2.85 5.11 -2.62 5.24 -2.37 5.38 -2.12 5.5 -1.86 5.62 -1.59 5.72 -1.32 5.83 -1.04 5.92 -0.76 6.01 -0.45 6.08 -0.16 0 0z"/>
  </g>
  <g>
   <polygon fill="#8878A6" fill-rule="nonzero" points="281.14,269.33 118.83,115.54 127.47,106.43 289.77,260.22 "/>
  </g>
  <rect fill="none" width="414.76" height="388.52"/>
  <ellipse fill="#E6E7E8" cx="205.74" cy="376.26" rx="122.08" ry="10.33"/>
 </g>
</svg>
