<?xml version="1.0" encoding="UTF-8"?>
<!DOCTYPE svg PUBLIC "-//W3C//DTD SVG 1.1//EN" "http://www.w3.org/Graphics/SVG/1.1/DTD/svg11.dtd">
<!-- Creator: CorelDRAW 2017 -->
<svg xmlns="http://www.w3.org/2000/svg" xml:space="preserve" width="472px" height="443px" version="1.1" shape-rendering="geometricPrecision" text-rendering="geometricPrecision" image-rendering="optimizeQuality" fill-rule="evenodd" clip-rule="evenodd"
viewBox="0 0 218.37 204.56"
 xmlns:xlink="http://www.w3.org/1999/xlink">
 <g id="Layer_x0020_1">
  <metadata id="CorelCorpID_0Corel-Layer"/>
  <rect fill="none" width="218.37" height="204.56"/>
  <ellipse fill="#E6E7E8" cx="108.33" cy="198.1" rx="64.28" ry="5.44"/>
  <g id="_1345627965104">
   <polygon fill="#B2A7C7" points="101.53,126.87 97.58,134.17 77.84,114.43 85.14,110.48 "/>
   <path fill="#E6E7E8" d="M122.44 99.77c-0.42,0.06 -0.86,0.09 -1.3,0.09 -4.97,0 -8.99,-4.02 -8.99,-8.99 0,-4.96 4.02,-8.98 8.99,-8.98 0.44,0 0.88,0.03 1.3,0.09 4.35,0.63 7.68,4.38 7.68,8.89 0,4.52 -3.33,8.26 -7.68,8.9z"/>
   <polygon fill="#B2A7C7" points="101.75,84.84 80.62,105.97 67.64,103.56 84.09,87.11 "/>
   <polygon fill="#B2A7C7" points="127.18,110.25 124.9,127.92 108.45,144.37 106.04,131.39 "/>
   <path fill="#604F80" d="M138.97 73.04c3.37,3.38 7.67,5.25 12.08,5.64 -2.21,7.2 -6.16,13.86 -11.63,19.32l-12.24 12.25 -21.14 21.14 -4.51 -4.52 -16.39 -16.39 -4.52 -4.51 21.13 -21.13 0.01 0 12.25 -12.25c5.46,-5.47 12.12,-9.42 19.33,-11.63 0.38,4.41 2.25,8.71 5.63,12.08zm-11.48 24.19c3.51,-3.51 3.51,-9.2 0,-12.71 -3.51,-3.51 -9.2,-3.51 -12.71,0 -3.51,3.51 -3.51,9.2 0,12.71 3.51,3.51 9.2,3.51 12.71,0z"/>
   <path fill="#B2A7C7" d="M152.74 59.27c0.82,6.6 0.21,13.21 -1.69,19.41 -4.41,-0.39 -8.71,-2.26 -12.08,-5.64 -3.38,-3.37 -5.25,-7.67 -5.63,-12.08 6.2,-1.9 12.8,-2.51 19.4,-1.69z"/>
   <rect fill="#604F80" transform="matrix(-0.0540587 -0.0540587 0.0540587 -0.0540587 67.9759 146.877)" width="46.4" height="327.9"/>
   <rect fill="#604F80" transform="matrix(-0.0540587 -0.0540587 0.0540587 -0.0540587 75.5282 149.024)" width="46.4" height="277.91"/>
   <rect fill="#604F80" transform="matrix(-0.0540587 -0.0540587 0.0540587 -0.0540587 65.8287 139.324)" width="46.4" height="277.91"/>
   <path fill="#FEFEFE" d="M122.44 99.77l0 -17.79c4.35,0.63 7.68,4.38 7.68,8.89 0,4.52 -3.33,8.26 -7.68,8.9z"/>
  </g>
 </g>
</svg>
