<?xml version="1.0" encoding="UTF-8"?>
<!DOCTYPE svg PUBLIC "-//W3C//DTD SVG 1.1//EN" "http://www.w3.org/Graphics/SVG/1.1/DTD/svg11.dtd">
<!-- Creator: CorelDRAW 2017 -->
<svg xmlns="http://www.w3.org/2000/svg" xml:space="preserve" width="472px" height="443px" version="1.1" shape-rendering="geometricPrecision" text-rendering="geometricPrecision" image-rendering="optimizeQuality" fill-rule="evenodd" clip-rule="evenodd"
viewBox="0 0 414.76 388.52"
 xmlns:xlink="http://www.w3.org/1999/xlink">
 <g id="Layer_x0020_1">
  <metadata id="CorelCorpID_0Corel-Layer"/>
  <text x="117.27" y="206.44"  fill="#463A5E" font-weight="bold" font-size="50.43px" font-family="Consolas">&lt;</text>
  <text x="268.24" y="206.44"  fill="#463A5E" font-weight="bold" font-size="50.43px" font-family="Consolas">&gt;</text>
  <text x="144.99" y="206.44"  fill="#463A5E" font-weight="900" font-size="50.43px" font-family="Arial Black">html</text>
  <g>
   <path fill="#8878A6" fill-rule="nonzero" d="M322.7 187.86l-13.16 0 0 0 -0.14 -5.42 -0.41 -5.34 -0.66 -5.26 -0.93 -5.18 -1.17 -5.09 -1.42 -4.98 -1.65 -4.89 -1.88 -4.77 -2.11 -4.66 -2.32 -4.53 -2.53 -4.4 -2.74 -4.27 -2.93 -4.12 -3.12 -3.98 -3.31 -3.81 -3.48 -3.66 -3.66 -3.48 -3.81 -3.31 -3.98 -3.12 -4.12 -2.94 -4.27 -2.73 -4.41 -2.53 -4.53 -2.33 -4.66 -2.1 -4.77 -1.88 -4.89 -1.66 -4.99 -1.41 -5.09 -1.18 -5.18 -0.92 -5.26 -0.67 -5.35 -0.41 -5.42 -0.14 0 -13.21 6.08 0.16 6.01 0.45 5.92 0.76 5.83 1.04 5.73 1.32 5.62 1.59 5.5 1.86 5.37 2.12 5.25 2.37 5.1 2.62 4.96 2.85 4.8 3.08 4.64 3.3 4.47 3.51 4.29 3.72 4.11 3.92 3.92 4.1 3.72 4.3 3.51 4.47 3.3 4.64 3.08 4.8 2.85 4.96 2.62 5.11 2.37 5.24 2.12 5.38 1.86 5.5 1.6 5.62 1.32 5.73 1.04 5.84 0.75 5.92 0.46 6.01 0.15 6.09 0 0zm-118.35 118.37l0 -13.21 0 0 5.42 -0.13 5.35 -0.41 5.26 -0.67 5.18 -0.93 5.09 -1.17 4.99 -1.42 4.89 -1.65 4.77 -1.88 4.66 -2.11 4.53 -2.32 4.41 -2.53 4.27 -2.74 4.12 -2.93 3.98 -3.13 3.81 -3.3 3.66 -3.49 3.48 -3.65 3.31 -3.82 3.12 -3.97 2.93 -4.13 2.74 -4.26 2.53 -4.41 2.32 -4.53 2.11 -4.66 1.88 -4.77 1.65 -4.88 1.42 -4.99 1.17 -5.08 0.93 -5.18 0.66 -5.26 0.41 -5.35 0.14 -5.41 13.16 0 -0.15 6.08 -0.46 6.01 -0.75 5.93 -1.04 5.83 -1.32 5.73 -1.6 5.62 -1.86 5.5 -2.12 5.38 -2.37 5.25 -2.62 5.1 -2.85 4.96 -3.08 4.81 -3.3 4.64 -3.51 4.47 -3.72 4.29 -3.92 4.11 -4.11 3.92 -4.29 3.72 -4.47 3.51 -4.64 3.3 -4.8 3.08 -4.96 2.85 -5.1 2.61 -5.25 2.37 -5.37 2.12 -5.5 1.86 -5.62 1.6 -5.73 1.32 -5.83 1.04 -5.92 0.75 -6.01 0.46 -6.08 0.15 0 0zm-118.35 -118.37l13.16 0 0 0 0.14 5.41 0.41 5.35 0.67 5.26 0.92 5.18 1.18 5.08 1.41 4.99 1.65 4.88 1.89 4.77 2.1 4.66 2.32 4.53 2.54 4.41 2.73 4.26 2.93 4.13 3.13 3.97 3.3 3.82 3.49 3.65 3.65 3.49 3.82 3.3 3.97 3.13 4.13 2.93 4.27 2.74 4.4 2.53 4.53 2.32 4.66 2.11 4.78 1.88 4.88 1.65 4.99 1.42 5.09 1.17 5.18 0.93 5.27 0.67 5.34 0.41 5.42 0.13 0 13.21 -6.08 -0.15 -6.01 -0.46 -5.92 -0.75 -5.83 -1.04 -5.72 -1.32 -5.62 -1.6 -5.5 -1.86 -5.38 -2.12 -5.24 -2.37 -5.11 -2.61 -4.96 -2.85 -4.8 -3.08 -4.64 -3.3 -4.47 -3.51 -4.29 -3.72 -4.11 -3.92 -3.92 -4.11 -3.72 -4.29 -3.51 -4.47 -3.3 -4.64 -3.08 -4.81 -2.85 -4.96 -2.61 -5.1 -2.38 -5.25 -2.12 -5.38 -1.86 -5.5 -1.59 -5.62 -1.33 -5.73 -1.04 -5.83 -0.75 -5.93 -0.46 -6.01 -0.15 -6.08 0 0zm118.35 -118.38l0 13.21 0 0 -5.42 0.14 -5.34 0.41 -5.27 0.67 -5.18 0.92 -5.09 1.18 -4.99 1.41 -4.88 1.66 -4.78 1.88 -4.66 2.1 -4.53 2.33 -4.4 2.53 -4.27 2.73 -4.13 2.94 -3.97 3.12 -3.82 3.31 -3.65 3.48 -3.49 3.66 -3.3 3.81 -3.13 3.98 -2.93 4.12 -2.74 4.27 -2.53 4.4 -2.32 4.53 -2.1 4.66 -1.89 4.77 -1.65 4.89 -1.41 4.98 -1.18 5.09 -0.92 5.18 -0.67 5.26 -0.41 5.34 -0.14 5.42 -13.16 0 0.15 -6.09 0.46 -6.01 0.75 -5.92 1.04 -5.84 1.33 -5.73 1.59 -5.62 1.86 -5.5 2.12 -5.38 2.38 -5.24 2.61 -5.11 2.85 -4.96 3.08 -4.8 3.3 -4.64 3.51 -4.47 3.72 -4.3 3.92 -4.1 4.11 -3.92 4.29 -3.72 4.47 -3.51 4.64 -3.3 4.8 -3.08 4.96 -2.85 5.11 -2.62 5.24 -2.37 5.38 -2.12 5.5 -1.86 5.62 -1.59 5.72 -1.32 5.83 -1.04 5.92 -0.76 6.01 -0.45 6.08 -0.16 0 0z"/>
  </g>
  <g>
   <polygon fill="#8878A6" fill-rule="nonzero" points="281.14,269.33 118.83,115.54 127.47,106.43 289.77,260.22 "/>
  </g>
  <rect fill="none" width="414.76" height="388.52"/>
  <ellipse fill="#E6E7E8" cx="205.74" cy="376.26" rx="122.08" ry="10.33"/>
 </g>
</svg>
