<?xml version="1.0" encoding="UTF-8"?>
<!DOCTYPE svg PUBLIC "-//W3C//DTD SVG 1.1//EN" "http://www.w3.org/Graphics/SVG/1.1/DTD/svg11.dtd">
<!-- Creator: CorelDRAW 2017 -->
<svg xmlns="http://www.w3.org/2000/svg" xml:space="preserve" width="472px" height="443px" version="1.1" shape-rendering="geometricPrecision" text-rendering="geometricPrecision" image-rendering="optimizeQuality" fill-rule="evenodd" clip-rule="evenodd"
viewBox="0 0 107.39 100.6"
 xmlns:xlink="http://www.w3.org/1999/xlink">
 <g id="Layer_x0020_1">
  <metadata id="CorelCorpID_0Corel-Layer"/>
  <rect fill="none" width="107.39" height="100.6"/>
  <ellipse fill="#E6E7E8" cx="54.92" cy="96.7" rx="30.87" ry="2.61"/>
  <g id="_1884326302864">
   <g>
    <path fill="#604F80" d="M54.17 13.84c0.63,-0.36 1.46,-0.36 2.09,0 3.17,1.8 6.34,3.58 9.51,5.38 0.6,0.33 1,1 0.99,1.68l0 10.78c0,0.72 -0.43,1.4 -1.06,1.73 -3.16,1.78 -6.32,3.56 -9.48,5.35 -0.65,0.36 -1.49,0.34 -2.11,-0.06 -0.95,-0.55 -1.9,-1.1 -2.84,-1.65 -0.2,-0.11 -0.42,-0.2 -0.55,-0.39 0.12,-0.16 0.33,-0.18 0.51,-0.26 0.39,-0.12 0.76,-0.32 1.12,-0.52 0.09,-0.06 0.21,-0.04 0.29,0.02 0.81,0.46 1.62,0.94 2.43,1.4 0.17,0.1 0.35,-0.03 0.5,-0.11 3.1,-1.76 6.2,-3.5 9.31,-5.26 0.11,-0.05 0.17,-0.17 0.16,-0.3 0.01,-3.56 0.01,-7.11 0.01,-10.67 0.01,-0.14 -0.07,-0.27 -0.2,-0.33 -3.15,-1.78 -6.3,-3.55 -9.45,-5.33 -0.05,-0.04 -0.12,-0.06 -0.19,-0.06 -0.06,0 -0.13,0.02 -0.18,0.06 -3.15,1.78 -6.3,3.55 -9.45,5.33 -0.13,0.06 -0.21,0.19 -0.2,0.33 0,3.56 0,7.11 0,10.67 0,0.01 0,0.02 0,0.03 0,0.11 0.07,0.22 0.17,0.27 0.84,0.48 1.69,0.95 2.53,1.42 0.47,0.26 1.05,0.41 1.57,0.21 0.47,-0.16 0.79,-0.63 0.78,-1.12 0,-3.53 0,-7.07 0,-10.61 -0.01,-0.15 0.14,-0.28 0.29,-0.27 0.41,0 0.81,0 1.21,0 0.17,0 0.29,0.17 0.27,0.33 0,3.55 0,7.11 0,10.67 0,0.95 -0.39,1.98 -1.27,2.44 -1.08,0.56 -2.42,0.45 -3.48,-0.09 -0.93,-0.46 -1.81,-1.01 -2.72,-1.5 -0.63,-0.33 -1.06,-1.01 -1.06,-1.72l0 -10.79c-0.01,-0.7 0.41,-1.37 1.02,-1.7 3.16,-1.79 6.32,-3.57 9.48,-5.36z"/>
    <path fill="#604F80" d="M56.93 21.31c1.38,-0.09 2.85,-0.05 4.09,0.63 0.96,0.52 1.5,1.61 1.51,2.68 -0.02,0.14 -0.17,0.22 -0.31,0.21 -0.4,0 -0.8,0.01 -1.2,0 -0.17,0 -0.27,-0.15 -0.29,-0.3 -0.12,-0.51 -0.39,-1.02 -0.87,-1.26 -0.74,-0.37 -1.6,-0.35 -2.4,-0.35 -0.59,0.03 -1.22,0.08 -1.72,0.43 -0.38,0.26 -0.49,0.79 -0.36,1.21 0.13,0.31 0.48,0.41 0.77,0.5 1.66,0.43 3.42,0.39 5.05,0.96 0.68,0.24 1.34,0.69 1.57,1.39 0.3,0.95 0.17,2.08 -0.51,2.84 -0.54,0.63 -1.34,0.97 -2.13,1.15 -1.06,0.24 -2.15,0.24 -3.22,0.14 -1.01,-0.11 -2.06,-0.38 -2.84,-1.07 -0.66,-0.57 -0.99,-1.47 -0.96,-2.34 0.01,-0.15 0.16,-0.25 0.3,-0.24 0.4,0 0.8,0 1.2,0 0.17,-0.01 0.29,0.13 0.29,0.28 0.08,0.49 0.26,1 0.68,1.28 0.82,0.53 1.85,0.5 2.79,0.51 0.77,-0.03 1.65,-0.04 2.28,-0.56 0.33,-0.29 0.43,-0.78 0.34,-1.2 -0.1,-0.36 -0.47,-0.52 -0.79,-0.63 -1.64,-0.52 -3.42,-0.33 -5.04,-0.92 -0.66,-0.23 -1.3,-0.67 -1.55,-1.35 -0.35,-0.96 -0.19,-2.14 0.55,-2.88 0.73,-0.73 1.77,-1.01 2.77,-1.11l0 0z"/>
   </g>
  </g>
  <g id="_1884326302672">
   <path fill="#604F80" d="M25.01 37.39c-5.61,0 -5.26,2.43 -5.26,2.43l0.01 2.52 5.35 0 0 0.76 -7.48 0c0,0 -3.59,-0.41 -3.59,5.25 0,5.66 3.14,5.46 3.14,5.46l1.87 0 0 -2.62c0,0 -0.1,-3.14 3.08,-3.14l5.31 0c0,0 2.98,0.05 2.98,-2.88l0 -4.85c0,0 0.45,-2.93 -5.41,-2.93zm-2.95 1.7c0,0 0,0 0,0 0.53,0 0.96,0.43 0.96,0.96 0,0 0,0 0,0 0,0 0,0 0,0 0,0.53 -0.43,0.96 -0.96,0.96 0,0 0,0 0,0 0,0 0,0 0,0 -0.53,0 -0.96,-0.43 -0.96,-0.96 0,0 0,0 0,0 0,0 0,0 0,0 0,-0.53 0.43,-0.96 0.96,-0.96 0,0 0,0 0,0l0 0z"/>
   <path fill="#604F80" d="M25.17 59.37c5.61,0 5.26,-2.43 5.26,-2.43l-0.01 -2.52 -5.35 0 0 -0.76 7.48 0c0,0 3.59,0.41 3.59,-5.25 0,-5.66 -3.13,-5.46 -3.13,-5.46l-1.87 0 0 2.63c0,0 0.1,3.13 -3.09,3.13l-5.3 0c0,0 -2.99,-0.05 -2.99,2.88l0 4.85c0,0 -0.45,2.93 5.41,2.93l0 0zm2.95 -1.69c0,0 0,0 0,0 -0.53,0 -0.96,-0.43 -0.96,-0.96 0,0 0,0 0,-0.01 0,0 0,0 0,0 0,-0.53 0.43,-0.96 0.96,-0.96 0,0 0,0 0,0 0,0 0,0 0,0 0.54,0 0.97,0.43 0.97,0.96 0,0 0,0 0,0 0,0.01 0,0.01 0,0.01 0,0.53 -0.43,0.96 -0.97,0.96 0,0 0,0 0,0l0 0z"/>
  </g>
  <path id="Shape" fill="#604F80" d="M92.92 39.11l-8.61 -5.11c-1.02,-0.61 -2.29,-0.61 -3.31,0l-8.61 5.11c-1.04,0.62 -1.68,1.75 -1.68,2.96l0 10.22c0,1.21 0.63,2.33 1.66,2.96l8.62 5.11c1.02,0.6 2.28,0.6 3.3,0l8.61 -5.11c1.04,-0.63 1.67,-1.75 1.66,-2.96l0 -10.22c0.01,-1.21 -0.61,-2.33 -1.64,-2.96l0 0zm-6.67 15.96l0 0.74c0,0.09 -0.05,0.17 -0.13,0.22l-0.43 0.25c-0.07,0.04 -0.13,0 -0.13,-0.1l0 -0.72c-0.31,0.15 -0.66,0.19 -0.99,0.1 -0.05,-0.04 -0.07,-0.1 -0.05,-0.16l0.16 -0.67c0.01,-0.05 0.04,-0.1 0.09,-0.14 0.01,-0.01 0.02,-0.02 0.04,-0.03 0.02,-0.01 0.04,-0.01 0.07,0 0.3,0.08 0.62,0.04 0.9,-0.12 0.4,-0.19 0.65,-0.59 0.67,-1.03 0,-0.37 -0.2,-0.53 -0.7,-0.53 -0.62,0 -1.2,-0.12 -1.21,-1.04 0.01,-0.8 0.38,-1.55 1.01,-2.05l0 -0.74c0,-0.09 0.04,-0.18 0.12,-0.23l0.42 -0.27c0.07,-0.03 0.13,0 0.13,0.1l0 0.74c0.26,-0.11 0.55,-0.15 0.82,-0.09 0.06,0.03 0.09,0.1 0.06,0.17l-0.15 0.66c-0.01,0.05 -0.04,0.09 -0.07,0.13 -0.02,0.01 -0.03,0.02 -0.05,0.03 -0.02,0.01 -0.04,0.01 -0.06,0 -0.27,-0.06 -0.55,-0.01 -0.79,0.13 -0.36,0.15 -0.59,0.5 -0.6,0.88 0,0.34 0.17,0.44 0.77,0.46 0.8,0 1.14,0.36 1.15,1.16 -0.02,0.83 -0.4,1.62 -1.05,2.15l0 0 0 0zm4.51 -1.23c0.01,0.06 -0.01,0.12 -0.07,0.16l-2.17 1.32c-0.02,0.02 -0.05,0.02 -0.08,0.01 -0.02,-0.01 -0.03,-0.04 -0.03,-0.07l0 -0.56c0.01,-0.06 0.05,-0.12 0.1,-0.14l2.15 -1.28c0.02,-0.02 0.05,-0.02 0.07,-0.01 0.03,0.02 0.04,0.04 0.03,0.07l0 0.5 0 0 0 0zm1.5 -12.57l-8.14 5.03c-1.02,0.6 -1.77,1.26 -1.77,2.48l0 10.04c0,0.73 0.3,1.2 0.75,1.35 -0.15,0.02 -0.3,0.04 -0.45,0.04 -0.48,0 -0.95,-0.13 -1.36,-0.38l-8.61 -5.11c-0.85,-0.51 -1.37,-1.44 -1.36,-2.43l0 -10.22c-0.01,-1 0.51,-1.92 1.36,-2.44l8.61 -5.11c0.84,-0.49 1.87,-0.49 2.71,0l8.61 5.11c0.71,0.43 1.19,1.15 1.32,1.97 -0.28,-0.61 -0.92,-0.77 -1.67,-0.33l0 0 0 0z" />
  <path fill="#604F80" d="M50.74 77.83c-3.28,0 -6.55,0.01 -9.82,-0.01 -1.66,-0.01 -1.96,-0.4 -1.59,-2.02 1.27,-5.51 2.58,-11 3.81,-16.51 0.34,-1.48 1.05,-2.13 2.63,-2.12 6.55,0.06 13.09,0.02 19.64,0.03 1.64,0 1.91,0.35 1.54,2.02 -1.19,5.4 -2.39,10.8 -3.62,16.2 -0.46,2.02 -0.99,2.4 -3.11,2.41 -3.16,0.01 -6.32,0 -9.48,0z"/>
  <path fill="#FDFDFE" d="M53.52 67.04c-0.22,-0.25 -0.46,-0.55 -0.72,-0.83 -1.44,-1.61 -2.88,-3.23 -4.35,-4.81 -0.67,-0.72 -0.89,-1.43 -0.08,-2.14 0.8,-0.71 1.59,-0.65 2.32,0.17 2.04,2.26 4.08,4.53 6.16,6.76 0.78,0.83 0.59,1.4 -0.26,2.02 -3.28,2.37 -6.53,4.77 -9.79,7.17 -0.73,0.54 -1.43,0.67 -2.02,-0.12 -0.65,-0.88 -0.05,-1.41 0.63,-1.9 2.42,-1.76 4.83,-3.53 7.23,-5.31 0.34,-0.25 0.82,-0.4 0.88,-1.01z"/>
  <path fill="#FCFDFD" d="M54.56 75.56c-0.89,0 -1.77,0.03 -2.65,-0.01 -0.7,-0.04 -1.12,-0.43 -1.11,-1.17 0.01,-0.69 0.36,-1.22 1.06,-1.24 1.93,-0.05 3.85,-0.04 5.78,0 0.61,0.01 1.06,0.41 1.06,1.05 0,0.73 -0.39,1.3 -1.17,1.34 -0.99,0.06 -1.98,0.02 -2.97,0.02 0,0 0,0 0,0.01z"/>
 </g>
</svg>
