<?xml version="1.0" encoding="UTF-8"?>
<!DOCTYPE svg PUBLIC "-//W3C//DTD SVG 1.1//EN" "http://www.w3.org/Graphics/SVG/1.1/DTD/svg11.dtd">
<!-- Creator: CorelDRAW 2017 -->
<svg xmlns="http://www.w3.org/2000/svg" xml:space="preserve" width="746px" height="746px" version="1.1" shape-rendering="geometricPrecision" text-rendering="geometricPrecision" image-rendering="optimizeQuality" fill-rule="evenodd" clip-rule="evenodd"
viewBox="0 0 9821.48 9821.48"
 xmlns:xlink="http://www.w3.org/1999/xlink">
 <g id="Layer_x0020_1">
  <metadata id="CorelCorpID_0Corel-Layer"/>
  <path fill="#613659" d="M2140.27 0l5540.94 0c1181.85,0 2140.27,958.42 2140.27,2140.27l0 5538.91c0,1181.83 -958.42,2140.25 -2140.27,2140.25l-5540.94 0c-1181.83,0 -2140.27,-958.42 -2140.27,-2140.27l0 -5538.89c0,-1181.85 958.44,-2140.27 2140.27,-2140.27z"/>
  <path fill="#FF9595" d="M1841.52 6625.4l0 3196.08 1722.86 0 0 -1497.77 -104.36 0c-828.68,0 -1518.23,-752.99 -1618.5,-1698.31z"/>
  <path fill="#FF9595" d="M7979.96 3298.39c-7.67,-801.18 -655.69,-1449.2 -1456.93,-1456.93l-3224.64 0.06c-801.18,7.67 -1449.2,655.69 -1456.92,1456.93l0.05 3222.61c-1.49,29.48 -2.32,59.34 -2.32,89 0,29.64 0.83,59.5 2.27,88.94 95.46,731.89 718.71,1280.06 1456.9,1280.95l3224.73 0.01c802.04,-7.67 1450.25,-656.76 1456.91,-1458.9l-0.05 -3222.67z"/>
  <path fill="#613659" d="M3372.05 4370.57l441.96 0c262.13,0 474.71,212.57 474.71,474.7l-0.01 441.96c0.01,262.13 -212.57,474.71 -474.69,474.71l-441.97 0c-262.12,0 -474.7,-212.58 -474.7,-474.71l-0.02 -441.96c0.02,-262.13 212.6,-474.7 474.72,-474.7z"/>
  <path fill="#613659" d="M6007.48 4370.57l441.96 0c262.13,0 474.71,212.57 474.71,474.7l0 441.96c0,262.13 -212.58,474.71 -474.71,474.71l-441.96 0c-262.14,0 -474.72,-212.58 -474.72,-474.71l0.02 -441.96c-0.02,-262.13 212.56,-474.7 474.7,-474.7z"/>
 </g>
</svg>
