<?xml version="1.0" encoding="UTF-8"?>
<!DOCTYPE svg PUBLIC "-//W3C//DTD SVG 1.1//EN" "http://www.w3.org/Graphics/SVG/1.1/DTD/svg11.dtd">
<!-- Creator: CorelDRAW 2017 -->
<svg xmlns="http://www.w3.org/2000/svg" xml:space="preserve" width="295px" height="295px" version="1.1" shape-rendering="geometricPrecision" text-rendering="geometricPrecision" image-rendering="optimizeQuality" fill-rule="evenodd" clip-rule="evenodd"
viewBox="0 0 1624.26 1624.26"
 xmlns:xlink="http://www.w3.org/1999/xlink">
 <g id="Layer_x0020_1">
  <metadata id="CorelCorpID_0Corel-Layer"/>
  <path fill="#8700EC" d="M353.96 0l916.35 0c195.45,0 353.95,158.5 353.95,353.96l0 916.01c0,195.45 -158.5,353.95 -353.95,353.95l-916.35 0c-195.45,0 -353.96,-158.5 -353.96,-353.95l0 -916.01c0,-195.46 158.51,-353.96 353.96,-353.96z"/>
  <path fill="#FFA0AD" d="M304.55 1095.7l0 528.56 284.92 0 0 -247.7 -17.26 0c-137.04,0 -251.08,-124.52 -267.66,-280.86z"/>
  <path fill="#FFA0AD" d="M1319.71 545.48c-1.27,-132.5 -108.43,-239.67 -240.94,-240.94l-533.29 0.01c-132.5,1.26 -239.66,108.43 -240.94,240.94l0.01 532.95c-0.25,4.88 -0.38,9.82 -0.38,14.72 0,4.9 0.13,9.84 0.37,14.71 15.79,121.04 118.86,211.69 240.94,211.84l533.3 0c132.64,-1.27 239.84,-108.61 240.94,-241.27l-0.01 -532.96z"/>
  <path fill="#8700EC" d="M557.66 722.79l73.1 0c43.34,0 78.5,35.16 78.5,78.51l0 73.1c0,43.34 -35.16,78.5 -78.5,78.5l-73.1 0c-43.34,0 -78.5,-35.16 -78.5,-78.5l0 -73.1c0,-43.35 35.16,-78.51 78.5,-78.51z"/>
  <path fill="#8700EC" d="M993.5 722.79l73.1 0c43.35,0 78.51,35.16 78.51,78.51l0 73.1c0,43.34 -35.16,78.5 -78.51,78.5l-73.1 0c-43.34,0 -78.5,-35.16 -78.5,-78.5l0 -73.1c0,-43.35 35.16,-78.51 78.5,-78.51z"/>
 </g>
</svg>
