<?xml version="1.0" encoding="UTF-8"?>
<!DOCTYPE svg PUBLIC "-//W3C//DTD SVG 1.1//EN" "http://www.w3.org/Graphics/SVG/1.1/DTD/svg11.dtd">
<!-- Creator: CorelDRAW 2017 -->
<svg xmlns="http://www.w3.org/2000/svg" xml:space="preserve" width="290px" height="228px" version="1.1" shape-rendering="geometricPrecision" text-rendering="geometricPrecision" image-rendering="optimizeQuality" fill-rule="evenodd" clip-rule="evenodd"
viewBox="0 0 98.96 77.7"
 xmlns:xlink="http://www.w3.org/1999/xlink">
 <g id="Layer_x0020_1">
  <metadata id="CorelCorpID_0Corel-Layer"/>
  <path fill="#FFB0B0" d="M98.92 29.41c1.21,23.14 -21.39,48.34 -49.46,48.29 -27.58,-0.04 -50.52,-24.97 -49.42,-47.82 0.34,-7.06 9.35,-12.09 14.7,-15.02 -3.67,-7.48 0.88,-11.22 1.83,-14.86 4.56,1.87 10.06,1.72 12.79,7.78 10.62,-4.34 27.79,-4.7 39.16,0.36 2.38,-6.95 11.18,-6.57 13.44,-8.01 1.13,3.7 5.24,9.28 2.27,15.07 7.6,4.11 14.28,6.38 14.69,14.21z"/>
  <ellipse fill="none" stroke="#373435" stroke-width="1.7" stroke-miterlimit="22.9256" cx="49.01" cy="18.73" rx="4.79" ry="4.45"/>
  <ellipse fill="#373435" cx="47.34" cy="17.18" rx="0.72" ry="0.67"/>
  <ellipse fill="#373435" cx="50.6" cy="17.21" rx="0.72" ry="0.67"/>
  <g>
   <path fill="#373435" fill-rule="nonzero" d="M27.78 27.3c-0.42,-0.19 -0.57,-0.61 -0.35,-0.95 0.22,-0.33 0.74,-0.46 1.15,-0.28l-0.8 1.23zm41.24 -1.06l0.72 1.26 -0.89 0.31 -0.97 0.29 -1.05 0.26 -1.12 0.25 -1.19 0.22 -1.25 0.2 -1.31 0.18 -1.36 0.17 -1.41 0.14 -1.45 0.12 -1.48 0.11 -1.5 0.08 -1.53 0.07 -1.55 0.04 -1.56 0.03 -1.56 0 -1.56 -0.01 -1.55 -0.04 -1.54 -0.05 -1.52 -0.07 -1.49 -0.1 -1.46 -0.11 -1.43 -0.13 -1.38 -0.16 -1.33 -0.17 -1.28 -0.2 -1.22 -0.21 -1.16 -0.24 -1.08 -0.26 -1.01 -0.28 -0.93 -0.31 -0.84 -0.33 0.8 -1.23 0.73 0.29 0.84 0.27 0.92 0.26 1.02 0.25 1.1 0.22 1.16 0.21 1.24 0.19 1.29 0.17 1.34 0.15 1.39 0.13 1.43 0.11 1.47 0.09 1.49 0.07 1.51 0.05 1.52 0.04 1.54 0.01 1.53 0 1.53 -0.03 1.52 -0.04 1.5 -0.07 1.48 -0.08 1.45 -0.1 1.42 -0.12 1.37 -0.14 1.32 -0.16 1.27 -0.18 1.2 -0.19 1.14 -0.21 1.06 -0.24 0.98 -0.24 0.89 -0.26 0.79 -0.28zm0 0c0.43,-0.16 0.93,-0.01 1.13,0.33 0.2,0.35 0.02,0.77 -0.41,0.93l-0.72 -1.26z"/>
  </g>
  <g>
   <path fill="#373435" fill-rule="nonzero" d="M41.99 10.31c0.46,0.04 0.81,0.38 0.77,0.76 -0.04,0.38 -0.45,0.66 -0.92,0.62l0.15 -1.38zm-6.25 2.9l-1.13 -1.06 0.24 -0.16 0.24 -0.15 0.24 -0.15 0.24 -0.13 0.25 -0.13 0.25 -0.12 0.25 -0.11 0.25 -0.1 0.26 -0.1 0.25 -0.09 0.25 -0.08 0.26 -0.07 0.25 -0.07 0.25 -0.07 0.25 -0.05 0.24 -0.05 0.25 -0.05 0.24 -0.04 0.24 -0.03 0.23 -0.03 0.24 -0.03 0.22 -0.02 0.23 -0.02 0.21 -0.01 0.22 -0.01 0.21 0 0.2 -0.01 0.2 0 0.18 0.01 0.19 0.01 0.18 0.01 0.17 0.01 -0.15 1.38 -0.13 -0.01 -0.14 0 -0.15 -0.01 -0.16 0 -0.16 0 -0.17 0 -0.17 0 -0.18 0.01 -0.18 0.01 -0.19 0.01 -0.19 0.02 -0.2 0.02 -0.2 0.03 -0.2 0.03 -0.2 0.03 -0.21 0.04 -0.2 0.04 -0.21 0.05 -0.21 0.05 -0.21 0.06 -0.21 0.06 -0.21 0.07 -0.21 0.08 -0.21 0.07 -0.21 0.09 -0.2 0.09 -0.21 0.1 -0.2 0.1 -0.2 0.11 -0.2 0.12 -0.19 0.12 -0.19 0.13zm0 0c-0.35,0.25 -0.89,0.21 -1.2,-0.08 -0.31,-0.29 -0.28,-0.73 0.07,-0.98l1.13 1.06z"/>
  </g>
  <g>
   <path fill="#373435" fill-rule="nonzero" d="M56.05 10.31l0.14 1.38c-0.47,0.04 -0.88,-0.24 -0.92,-0.62 -0.04,-0.38 0.31,-0.73 0.78,-0.76zm6.24 2.9l-0.19 -0.14 -0.19 -0.12 -0.2 -0.11 -0.2 -0.11 -0.2 -0.11 -0.2 -0.09 -0.21 -0.1 -0.21 -0.08 -0.2 -0.08 -0.21 -0.07 -0.21 -0.07 -0.22 -0.06 -0.21 -0.06 -0.2 -0.05 -0.21 -0.05 -0.21 -0.04 -0.21 -0.04 -0.2 -0.04 -0.2 -0.03 -0.2 -0.02 -0.19 -0.02 -0.2 -0.02 -0.19 -0.02 -0.18 -0.01 -0.18 0 -0.17 -0.01 -0.17 0 -0.16 0 -0.16 0.01 -0.15 0 -0.14 0.01 -0.13 0.01 -0.14 -1.38 0.17 -0.02 0.17 -0.01 0.19 -0.01 0.19 0 0.19 0 0.21 0 0.21 0.01 0.21 0 0.22 0.02 0.22 0.01 0.23 0.03 0.23 0.02 0.23 0.03 0.24 0.04 0.24 0.04 0.25 0.04 0.24 0.05 0.25 0.06 0.25 0.06 0.26 0.07 0.25 0.08 0.25 0.08 0.25 0.09 0.26 0.09 0.25 0.11 0.25 0.11 0.25 0.12 0.25 0.12 0.24 0.14 0.25 0.14 0.24 0.15 0.23 0.17 -1.13 1.06zm0 0l1.13 -1.06c0.35,0.24 0.39,0.68 0.07,0.98 -0.31,0.29 -0.85,0.32 -1.2,0.08z"/>
  </g>
 </g>
</svg>
