<?xml version="1.0" encoding="UTF-8"?>
<!DOCTYPE svg PUBLIC "-//W3C//DTD SVG 1.1//EN" "http://www.w3.org/Graphics/SVG/1.1/DTD/svg11.dtd">
<!-- Creator: CorelDRAW 2017 -->
<svg xmlns="http://www.w3.org/2000/svg" xml:space="preserve" width="200px" height="200px" version="1.1" shape-rendering="geometricPrecision" text-rendering="geometricPrecision" image-rendering="optimizeQuality" fill-rule="evenodd" clip-rule="evenodd"
viewBox="0 0 52.06 52.06"
 xmlns:xlink="http://www.w3.org/1999/xlink">
 <g id="Layer_x0020_1">
  <metadata id="CorelCorpID_0Corel-Layer"/>
  <rect fill="none" width="52.06" height="52.06"/>
  <path fill="#FF9595" d="M51.25 21.23c0.62,11.86 -10.97,24.79 -25.37,24.76 -14.15,-0.02 -25.91,-12.8 -25.35,-24.52 0.18,-3.63 6.04,-6.9 8.78,-8.4 -1.09,-4.11 0.33,-4.27 0.82,-6.14 2.34,0.96 2.81,0.09 5.44,3.2 5.45,-2.23 14.26,-2.41 20.09,0.19 2.06,-3.19 4.42,-2.47 5.58,-3.21 0.58,1.9 1.56,2.84 0.69,5.89 3.9,2.11 9.1,4.21 9.32,8.23z"/>
  <g>
   <path fill="#373435" fill-rule="nonzero" d="M32.19 13.04l0.32 -0.62c0.17,0.08 0.24,0.3 0.15,0.47 -0.09,0.17 -0.3,0.24 -0.47,0.15zm-2.63 -1.36l0.13 0 0.13 0 0.11 0 0.12 0.01 0.11 0 0.1 0.01 0.11 0 0.09 0.01 0.1 0.01 0.09 0.01 0.09 0.01 0.09 0.02 0.09 0.01 0.08 0.02 0.09 0.02 0.08 0.02 0.08 0.03 0.08 0.02 0.08 0.03 0.08 0.03 0.08 0.03 0.07 0.03 0.08 0.03 0.08 0.04 0.08 0.03 0.09 0.04 0.08 0.04 0.09 0.05 0.09 0.04 0.09 0.05 0.09 0.05 0.1 0.05 -0.32 0.62 -0.1 -0.05 -0.09 -0.05 -0.09 -0.05 -0.08 -0.04 -0.09 -0.04 -0.07 -0.04 -0.08 -0.03 -0.07 -0.04 -0.07 -0.03 -0.07 -0.03 -0.07 -0.02 -0.07 -0.03 -0.06 -0.02 -0.07 -0.02 -0.06 -0.02 -0.07 -0.02 -0.06 -0.02 -0.07 -0.02 -0.07 -0.01 -0.07 -0.01 -0.07 -0.01 -0.08 -0.01 -0.08 -0.01 -0.08 -0.01 -0.09 -0.01 -0.09 -0.01 -0.09 0 -0.1 0 -0.11 -0.01 -0.11 0 -0.12 0 -0.12 0 -0.01 -0.7zm0 0l0.01 0.7c-0.2,0 -0.35,-0.15 -0.35,-0.35 0,-0.19 0.15,-0.35 0.34,-0.35z"/>
  </g>
  <g>
   <path fill="#373435" fill-rule="nonzero" d="M28.45 15.75l-0.69 0 0 0 -0.01 -0.1 0 -0.1 -0.02 -0.09 -0.02 -0.1 -0.02 -0.09 -0.03 -0.09 -0.03 -0.09 -0.04 -0.09 -0.04 -0.08 -0.04 -0.08 -0.05 -0.09 -0.06 -0.07 -0.05 -0.08 -0.07 -0.07 -0.06 -0.07 -0.07 -0.07 -0.07 -0.07 -0.08 -0.06 -0.08 -0.05 -0.08 -0.06 -0.09 -0.05 -0.09 -0.05 -0.09 -0.04 -0.09 -0.04 -0.1 -0.04 -0.1 -0.03 -0.1 -0.02 -0.1 -0.02 -0.11 -0.02 -0.1 -0.01 -0.11 -0.01 -0.11 0 0 -0.7 0.14 0 0.14 0.01 0.14 0.02 0.14 0.02 0.13 0.03 0.14 0.03 0.13 0.04 0.12 0.05 0.13 0.05 0.12 0.06 0.11 0.06 0.12 0.07 0.11 0.07 0.1 0.08 0.11 0.08 0.09 0.09 0.1 0.09 0.09 0.09 0.08 0.1 0.08 0.11 0.07 0.1 0.07 0.11 0.06 0.12 0.06 0.11 0.05 0.12 0.05 0.13 0.03 0.12 0.04 0.13 0.02 0.13 0.02 0.13 0.01 0.14 0 0.14 0 0zm-2.8 2.62l0 -0.69 0 0 0.11 -0.01 0.11 0 0.1 -0.02 0.11 -0.01 0.1 -0.03 0.1 -0.02 0.1 -0.03 0.1 -0.04 0.09 -0.04 0.09 -0.04 0.09 -0.05 0.09 -0.05 0.08 -0.05 0.08 -0.06 0.08 -0.06 0.07 -0.07 0.07 -0.07 0.06 -0.07 0.07 -0.07 0.05 -0.08 0.06 -0.07 0.05 -0.08 0.04 -0.09 0.04 -0.08 0.04 -0.09 0.03 -0.09 0.03 -0.09 0.02 -0.09 0.02 -0.09 0.02 -0.1 0 -0.1 0.01 -0.09 0.69 0 0 0.13 -0.01 0.14 -0.02 0.13 -0.02 0.13 -0.04 0.13 -0.03 0.12 -0.05 0.13 -0.05 0.12 -0.06 0.11 -0.06 0.12 -0.07 0.11 -0.07 0.11 -0.08 0.1 -0.08 0.1 -0.09 0.09 -0.1 0.09 -0.09 0.09 -0.11 0.08 -0.1 0.08 -0.11 0.07 -0.12 0.07 -0.11 0.06 -0.12 0.06 -0.13 0.05 -0.12 0.05 -0.13 0.04 -0.14 0.03 -0.13 0.03 -0.14 0.02 -0.14 0.02 -0.14 0.01 -0.14 0 0 0zm-2.81 -2.62l0.7 0 0 0 0 0.09 0.01 0.1 0.01 0.1 0.02 0.09 0.02 0.09 0.03 0.09 0.04 0.09 0.03 0.09 0.04 0.08 0.05 0.09 0.05 0.08 0.05 0.07 0.06 0.08 0.06 0.07 0.07 0.07 0.07 0.07 0.07 0.07 0.08 0.06 0.08 0.06 0.08 0.05 0.09 0.05 0.08 0.05 0.1 0.04 0.09 0.04 0.1 0.04 0.09 0.03 0.1 0.02 0.11 0.03 0.1 0.01 0.11 0.02 0.11 0 0.11 0.01 0 0.69 -0.14 0 -0.15 -0.01 -0.14 -0.02 -0.13 -0.02 -0.14 -0.03 -0.13 -0.03 -0.13 -0.04 -0.13 -0.05 -0.12 -0.05 -0.12 -0.06 -0.12 -0.06 -0.11 -0.07 -0.11 -0.07 -0.11 -0.08 -0.1 -0.08 -0.1 -0.09 -0.09 -0.09 -0.09 -0.09 -0.08 -0.1 -0.08 -0.1 -0.08 -0.11 -0.06 -0.11 -0.07 -0.12 -0.05 -0.11 -0.06 -0.12 -0.04 -0.13 -0.04 -0.12 -0.03 -0.13 -0.03 -0.13 -0.01 -0.13 -0.01 -0.14 -0.01 -0.13 0 0zm2.81 -2.63l0 0.7 0 0 -0.11 0 -0.11 0.01 -0.11 0.01 -0.1 0.02 -0.11 0.02 -0.1 0.02 -0.09 0.03 -0.1 0.04 -0.09 0.04 -0.1 0.04 -0.08 0.05 -0.09 0.05 -0.08 0.06 -0.08 0.05 -0.08 0.07 -0.07 0.06 -0.07 0.07 -0.07 0.07 -0.06 0.07 -0.06 0.08 -0.05 0.07 -0.05 0.09 -0.05 0.08 -0.04 0.08 -0.03 0.09 -0.04 0.09 -0.03 0.09 -0.02 0.09 -0.02 0.1 -0.01 0.09 -0.01 0.1 0 0.1 -0.7 0 0.01 -0.14 0.01 -0.14 0.01 -0.13 0.03 -0.13 0.03 -0.13 0.04 -0.12 0.04 -0.13 0.06 -0.12 0.05 -0.11 0.07 -0.12 0.06 -0.11 0.08 -0.1 0.08 -0.11 0.08 -0.1 0.09 -0.09 0.09 -0.09 0.1 -0.09 0.1 -0.08 0.11 -0.08 0.11 -0.07 0.11 -0.07 0.12 -0.06 0.12 -0.06 0.12 -0.05 0.13 -0.05 0.13 -0.04 0.13 -0.03 0.14 -0.03 0.13 -0.02 0.14 -0.02 0.15 -0.01 0.14 0 0 0z"/>
  </g>
  <ellipse fill="#373435" cx="24.79" cy="14.95" rx="0.37" ry="0.34"/>
  <ellipse fill="#373435" cx="26.47" cy="14.97" rx="0.37" ry="0.34"/>
  <g>
   <path fill="#373435" fill-rule="nonzero" d="M14.76 20.14c-0.21,-0.09 -0.29,-0.31 -0.18,-0.48 0.11,-0.18 0.38,-0.24 0.59,-0.15l-0.41 0.63zm21.15 -0.54l0.37 0.64 -0.45 0.16 -0.5 0.15 -0.54 0.14 -0.58 0.12 -0.61 0.12 -0.64 0.1 -0.67 0.09 -0.7 0.09 -0.72 0.07 -0.74 0.06 -0.76 0.06 -0.77 0.04 -0.79 0.03 -0.79 0.03 -0.8 0.01 -0.8 0 -0.8 0 -0.8 -0.02 -0.79 -0.03 -0.77 -0.04 -0.77 -0.04 -0.75 -0.06 -0.73 -0.07 -0.71 -0.08 -0.68 -0.09 -0.66 -0.1 -0.63 -0.11 -0.59 -0.12 -0.55 -0.14 -0.52 -0.14 -0.48 -0.16 -0.43 -0.17 0.41 -0.63 0.38 0.15 0.42 0.14 0.48 0.13 0.52 0.13 0.56 0.12 0.6 0.1 0.63 0.1 0.67 0.08 0.69 0.08 0.71 0.07 0.73 0.06 0.75 0.04 0.77 0.04 0.77 0.03 0.79 0.01 0.78 0.01 0.79 0 0.78 -0.02 0.78 -0.02 0.77 -0.03 0.76 -0.04 0.75 -0.06 0.72 -0.06 0.7 -0.07 0.68 -0.08 0.65 -0.09 0.62 -0.1 0.58 -0.11 0.55 -0.12 0.5 -0.12 0.46 -0.14 0.4 -0.14zm0 0c0.22,-0.08 0.48,-0.01 0.58,0.17 0.11,0.18 0.01,0.39 -0.21,0.47l-0.37 -0.64z"/>
  </g>
  <g>
   <path fill="#373435" fill-rule="nonzero" d="M19.24 13.06c-0.17,0.09 -0.38,0.03 -0.47,-0.15 -0.09,-0.17 -0.02,-0.38 0.15,-0.47l0.32 0.62zm2.63 -1.35l-0.01 0.7 -0.12 0 -0.12 0 -0.11 0 -0.1 0 -0.11 0.01 -0.09 0 -0.09 0.01 -0.09 0 -0.08 0.01 -0.08 0.01 -0.08 0.01 -0.07 0.01 -0.07 0.02 -0.07 0.01 -0.07 0.02 -0.06 0.01 -0.07 0.02 -0.06 0.02 -0.07 0.02 -0.06 0.03 -0.07 0.02 -0.06 0.03 -0.07 0.03 -0.07 0.03 -0.08 0.03 -0.07 0.04 -0.08 0.04 -0.08 0.04 -0.09 0.04 -0.09 0.05 -0.09 0.04 -0.1 0.05 -0.32 -0.62 0.1 -0.05 0.09 -0.05 0.1 -0.04 0.08 -0.05 0.09 -0.04 0.08 -0.04 0.09 -0.04 0.08 -0.04 0.08 -0.03 0.08 -0.04 0.08 -0.03 0.08 -0.03 0.07 -0.03 0.08 -0.02 0.08 -0.03 0.08 -0.02 0.09 -0.02 0.08 -0.02 0.08 -0.02 0.09 -0.01 0.09 -0.02 0.09 -0.01 0.09 -0.01 0.1 -0.01 0.1 -0.01 0.1 -0.01 0.1 0 0.11 -0.01 0.12 0 0.12 0 0.12 0 0.13 0zm0 0c0.19,0 0.35,0.16 0.35,0.35 -0.01,0.19 -0.16,0.35 -0.36,0.35l0.01 -0.7z"/>
  </g>
 </g>
</svg>
