<?xml version="1.0" encoding="UTF-8"?>
<!DOCTYPE svg PUBLIC "-//W3C//DTD SVG 1.1//EN" "http://www.w3.org/Graphics/SVG/1.1/DTD/svg11.dtd">
<!-- Creator: CorelDRAW 2017 -->
<svg xmlns="http://www.w3.org/2000/svg" xml:space="preserve" width="200px" height="154px" version="1.1" shape-rendering="geometricPrecision" text-rendering="geometricPrecision" image-rendering="optimizeQuality" fill-rule="evenodd" clip-rule="evenodd"
viewBox="0 0 29.1 22.4"
 xmlns:xlink="http://www.w3.org/1999/xlink">
 <g id="Layer_x0020_1">
  <metadata id="CorelCorpID_0Corel-Layer"/>
  <path fill="#FF9595" d="M29.09 8.2c0.36,6.8 -6.29,14.21 -14.55,14.2 -8.11,-0.02 -14.85,-7.35 -14.53,-14.07 0.1,-2.07 3.46,-3.95 5.04,-4.81 -0.63,-2.36 0.19,-2.45 0.46,-3.52 1.35,0.55 1.62,0.05 3.13,1.83 3.12,-1.27 8.17,-1.38 11.51,0.11 1.18,-1.82 2.53,-1.42 3.2,-1.84 0.33,1.09 0.9,1.63 0.4,3.38 2.23,1.21 5.22,2.41 5.34,4.72z"/>
  <path fill="none" stroke="#373435" stroke-width="0.4" stroke-linecap="round" stroke-miterlimit="22.9256" d="M18.25 3.32c-0.61,-0.31 -0.8,-0.4 -1.59,-0.4"/>
  <ellipse fill="none" stroke="#373435" stroke-width="0.4" stroke-miterlimit="22.9256" cx="14.41" cy="5.05" rx="1.41" ry="1.31"/>
  <ellipse fill="#373435" cx="13.92" cy="4.6" rx="0.21" ry="0.2"/>
  <ellipse fill="#373435" cx="14.88" cy="4.61" rx="0.21" ry="0.2"/>
  <g>
   <path fill="#373435" fill-rule="nonzero" d="M8.17 7.57c-0.12,-0.05 -0.17,-0.17 -0.1,-0.27 0.06,-0.1 0.21,-0.14 0.33,-0.09l-0.23 0.36zm12.13 -0.31l0.21 0.37 -0.26 0.09 -0.29 0.09 -0.31 0.08 -0.33 0.07 -0.35 0.06 -0.37 0.06 -0.38 0.06 -0.4 0.04 -0.41 0.05 -0.43 0.03 -0.43 0.03 -0.45 0.03 -0.45 0.02 -0.45 0.01 -0.46 0.01 -0.46 0 -0.46 0 -0.45 -0.01 -0.46 -0.02 -0.44 -0.02 -0.44 -0.03 -0.43 -0.03 -0.42 -0.04 -0.41 -0.05 -0.39 -0.05 -0.38 -0.06 -0.36 -0.06 -0.33 -0.07 -0.32 -0.08 -0.3 -0.08 -0.27 -0.09 -0.25 -0.1 0.23 -0.36 0.22 0.09 0.24 0.08 0.28 0.07 0.3 0.08 0.32 0.06 0.34 0.06 0.36 0.06 0.38 0.05 0.4 0.04 0.41 0.04 0.42 0.03 0.43 0.03 0.44 0.02 0.44 0.02 0.45 0.01 0.45 0 0.45 0 0.45 -0.01 0.45 -0.01 0.44 -0.02 0.44 -0.02 0.42 -0.03 0.42 -0.04 0.4 -0.04 0.39 -0.05 0.37 -0.05 0.36 -0.06 0.33 -0.06 0.32 -0.07 0.28 -0.07 0.26 -0.08 0.24 -0.08zm0 0c0.12,-0.05 0.27,0 0.33,0.1 0.06,0.1 0,0.22 -0.12,0.27l-0.21 -0.37z"/>
  </g>
  <path fill="none" stroke="#373435" stroke-width="0.4" stroke-linecap="round" stroke-miterlimit="22.9256" d="M10.65 3.34c0.61,-0.32 0.8,-0.41 1.59,-0.4"/>
 </g>
</svg>
