<?xml version="1.0" encoding="UTF-8"?>
<!DOCTYPE svg PUBLIC "-//W3C//DTD SVG 1.1//EN" "http://www.w3.org/Graphics/SVG/1.1/DTD/svg11.dtd">
<!-- Creator: CorelDRAW 2017 -->
<svg xmlns="http://www.w3.org/2000/svg" xml:space="preserve" width="746px" height="746px" version="1.1" shape-rendering="geometricPrecision" text-rendering="geometricPrecision" image-rendering="optimizeQuality" fill-rule="evenodd" clip-rule="evenodd"
viewBox="0 0 291.95 291.95"
 xmlns:xlink="http://www.w3.org/1999/xlink">
 <g id="Layer_x0020_1">
  <metadata id="CorelCorpID_0Corel-Layer"/>
  <path fill="#8700EC" d="M63.62 0l164.71 0c35.13,0 63.62,28.49 63.62,63.62l0 164.65c0,35.13 -28.49,63.62 -63.62,63.62l-164.71 0c-35.13,0 -63.62,-28.49 -63.62,-63.62l0 -164.65c0,-35.13 28.49,-63.62 63.62,-63.62z"/>
  <path fill="#FFA0AD" d="M54.74 196.94l0 95.01 51.21 0 0 -44.52 -3.1 0c-24.63,0 -45.13,-22.39 -48.11,-50.49z"/>
  <path fill="#FFA0AD" d="M237.21 98.05c-0.23,-23.82 -19.49,-43.08 -43.31,-43.31l-95.85 0c-23.82,0.23 -43.08,19.49 -43.31,43.31l0 95.79c-0.04,0.88 -0.07,1.77 -0.07,2.65 0,0.88 0.03,1.77 0.07,2.64 2.84,21.76 21.36,38.05 43.31,38.08l95.85 0c23.84,-0.23 43.11,-19.53 43.31,-43.37l0 -95.79z"/>
  <path fill="#8700EC" d="M100.24 129.92l13.13 0c7.8,0 14.11,6.32 14.11,14.11l0 13.14c0,7.79 -6.31,14.11 -14.11,14.11l-13.13 0c-7.8,0 -14.12,-6.32 -14.12,-14.11l0 -13.14c0,-7.79 6.32,-14.11 14.12,-14.11z"/>
  <path fill="#8700EC" d="M178.57 129.92l13.14 0c7.79,0 14.11,6.32 14.11,14.11l0 13.14c0,7.79 -6.32,14.11 -14.11,14.11l-13.14 0c-7.79,0 -14.11,-6.32 -14.11,-14.11l0 -13.14c0,-7.79 6.32,-14.11 14.11,-14.11z"/>
 </g>
</svg>
